<?xml version="1.0" encoding="UTF-8"?>
<svg version="1.0" xmlns="http://www.w3.org/2000/svg"
 width="314" height="100" viewBox="0 0 314 100"
 preserveAspectRatio="xMidYMid meet">
<g transform="translate(0,100) scale(0.1,-0.1)"
fill="#000000" stroke="none">
<path d="M739 963 c-1 -4 -1 -30 0 -58 l2 -50 -125 -49 -126 -49 0 -65 0 -65
-55 7 c-45 5 -55 4 -55 -9 0 -13 10 -14 55 -9 l55 7 0 -65 0 -65 131 -52 131
-51 129 51 129 51 0 65 0 66 55 -7 c45 -5 55 -4 55 9 0 13 -10 14 -55 9 l-55
-7 0 66 0 65 -122 49 -123 48 0 54 c0 34 -5 56 -13 59 -6 2 -13 0 -13 -5z
m143 -176 l108 -42 0 -120 0 -120 -119 -47 -119 -47 -121 47 -120 47 -1 120 0
120 118 46 c64 26 124 45 132 43 8 -3 63 -24 122 -47z"/>
<path d="M640 738 c0 -7 9 -44 18 -83 13 -51 23 -71 36 -73 23 -5 33 10 41 66
8 52 20 45 32 -18 7 -35 13 -46 30 -48 18 -3 24 4 32 37 6 23 16 59 22 82 6
23 8 43 5 46 -10 11 -36 -7 -36 -24 0 -10 -5 -36 -12 -58 l-11 -40 -14 63
c-11 49 -18 62 -33 62 -19 0 -25 -10 -36 -72 -6 -38 -24 -53 -24 -20 0 36 -21
92 -35 92 -8 0 -15 -6 -15 -12z"/>
<path d="M1720 686 c0 -21 -4 -24 -32 -22 -27 1 -34 -4 -42 -26 -6 -18 -6 -38
0 -55 8 -25 15 -28 57 -29 l47 -2 0 79 c0 64 -3 79 -15 79 -9 0 -15 -9 -15
-24z m-5 -76 c0 -24 -5 -36 -17 -38 -19 -4 -32 29 -23 59 11 34 40 19 40 -21z"/>
<path d="M1300 697 c0 -2 4 -17 10 -33 5 -16 14 -48 20 -71 16 -63 43 -59 62
10 l14 52 13 -52 c10 -40 17 -53 32 -53 13 0 21 12 29 43 6 23 15 57 20 75 7
27 6 32 -10 32 -13 0 -19 -11 -24 -42 -10 -63 -19 -67 -31 -13 -8 40 -14 50
-30 50 -16 0 -22 -10 -29 -47 -5 -27 -12 -48 -16 -48 -4 0 -11 21 -16 47 -6
33 -14 49 -26 51 -10 2 -18 2 -18 -1z"/>
<path d="M1910 680 c-28 -28 -26 -81 3 -108 29 -28 78 -29 102 -2 22 24 12 39
-15 22 -40 -25 -80 -8 -80 33 0 39 50 61 77 34 20 -20 36 1 17 22 -23 25 -78
25 -104 -1z"/>
<path d="M1543 663 c-14 -5 -18 -33 -5 -33 4 0 13 5 19 11 6 6 16 8 22 5 19
-12 12 -26 -11 -26 -34 0 -50 -15 -46 -41 3 -22 8 -24 54 -25 l51 -1 -5 46
c-2 25 -9 52 -15 59 -9 12 -41 15 -64 5z m45 -75 c-7 -19 -38 -22 -38 -4 0 10
9 16 21 16 12 0 19 -5 17 -12z"/>
<path d="M1786 654 c-36 -35 -10 -104 38 -104 13 0 29 7 36 15 11 13 8 15 -20
13 -19 -2 -35 2 -37 10 -3 8 7 12 31 12 31 0 36 3 36 23 0 45 -52 64 -84 31z
m58 -19 c4 -11 -1 -15 -19 -15 -24 0 -32 10 -18 23 11 12 31 8 37 -8z"/>
<path d="M2067 652 c-22 -24 -21 -65 1 -85 36 -33 85 -15 97 35 13 53 -61 91
-98 50z m58 -42 c0 -40 -29 -55 -40 -21 -9 30 4 63 23 59 12 -2 17 -14 17 -38z"/>
<path d="M2390 650 c0 -6 27 -10 60 -10 33 0 60 4 60 10 0 6 -27 10 -60 10
-33 0 -60 -4 -60 -10z"/>
<path d="M2390 550 c0 -6 27 -10 60 -10 33 0 60 4 60 10 0 6 -27 10 -60 10
-33 0 -60 -4 -60 -10z"/>
<path d="M1310 440 c0 -37 2 -40 28 -39 23 2 24 2 5 6 -13 2 -23 8 -23 13 0 5
10 11 23 13 l22 4 -22 2 c-13 0 -23 7 -23 15 0 8 10 17 23 19 19 4 18 4 -5 6
-26 1 -28 -2 -28 -39z"/>
<path d="M1392 443 c-2 -41 -1 -43 26 -42 22 1 23 2 5 6 -17 3 -23 13 -26 41
l-4 37 -1 -42z"/>
<path d="M1470 440 c0 -37 2 -40 28 -39 23 2 24 2 5 6 -13 2 -23 8 -23 13 0 5
10 11 23 13 l22 4 -22 2 c-13 0 -23 7 -23 15 0 8 10 17 23 19 19 4 18 4 -5 6
-26 1 -28 -2 -28 -39z"/>
<path d="M1560 465 c-15 -18 -10 -45 12 -59 12 -7 21 -7 28 0 8 8 4 10 -12 10
-18 -1 -23 4 -23 24 0 19 5 25 22 24 12 0 20 3 17 8 -8 13 -30 9 -44 -7z"/>
<path d="M1643 473 c12 -3 17 -16 19 -41 l1 -37 4 35 c3 19 10 38 16 42 7 4
-4 7 -23 7 -19 -1 -27 -3 -17 -6z"/>
<path d="M1711 438 c1 -24 3 -35 6 -25 6 21 22 22 37 2 9 -12 11 -8 11 22 0
34 -3 38 -27 41 -27 3 -28 2 -27 -40z m49 17 c0 -8 -9 -15 -20 -15 -11 0 -20
7 -20 15 0 8 9 15 20 15 11 0 20 -7 20 -15z"/>
<path d="M1804 466 c-3 -8 -4 -25 -2 -38 2 -17 9 -23 28 -23 22 0 25 4 25 35
0 29 -4 36 -23 38 -13 2 -24 -3 -28 -12z m46 -26 c0 -23 -4 -30 -20 -30 -16 0
-20 7 -20 30 0 23 4 30 20 30 16 0 20 -7 20 -30z"/>
<path d="M1892 438 c1 -39 2 -40 5 -10 4 32 5 33 19 15 13 -16 13 -15 3 10
-18 40 -29 33 -27 -15z"/>
<path d="M1938 444 c-2 -19 0 -37 4 -40 4 -3 8 13 8 35 0 51 -6 53 -12 5z"/>
<path d="M1983 440 c0 -25 2 -35 4 -22 2 12 2 32 0 45 -2 12 -4 2 -4 -23z"/>
<path d="M2030 465 c-15 -18 -10 -45 12 -59 12 -7 21 -7 28 0 8 8 4 10 -12 10
-18 -1 -23 4 -23 24 0 19 5 25 22 24 12 0 20 3 17 8 -8 13 -30 9 -44 -7z"/>
<path d="M2117 473 c-13 -13 -7 -31 13 -36 11 -3 20 -11 20 -17 0 -8 -8 -10
-21 -7 -16 4 -19 3 -11 -5 14 -14 42 -3 42 16 0 8 -9 18 -20 21 -26 8 -26 29
0 22 11 -3 18 -1 14 4 -6 11 -28 12 -37 2z"/>
</g>
</svg>
