ISO-10303-21;
HEADER;
FILE_DESCRIPTION (( 'STEP AP214' ),
    '1' );
FILE_NAME ('XAL6060-472MEB.STEP',
    '2025-03-03T21:50:17',
    ( '' ),
    ( '' ),
    'SwSTEP 2.0',
    'SolidWorks 2021',
    '' );
FILE_SCHEMA (( 'AUTOMOTIVE_DESIGN' ));
ENDSEC;

DATA;
#1 = EDGE_LOOP ( 'NONE', ( #444, #83, #448, #174, #194, #783, #480, #707 ) ) ;
#2 = DIRECTION ( 'NONE',  ( 1.000000000000000000, 0.000000000000000000, 0.000000000000000000 ) ) ;
#3 = ADVANCED_FACE ( 'NONE', ( #799 ), #257, .T. ) ;
#4 = AXIS2_PLACEMENT_3D ( 'NONE', #306, #2, #606 ) ;
#5 = VECTOR ( 'NONE', #663, 1000.000000000000000 ) ;
#6 = FILL_AREA_STYLE ('',( #763 ) ) ;
#7 = ORIENTED_EDGE ( 'NONE', *, *, #945, .T. ) ;
#8 = CARTESIAN_POINT ( 'NONE',  ( -2.454999999999999183, 6.099999999999999645, -1.999999999999997113 ) ) ;
#9 = PLANE ( 'NONE',  #227 ) ;
#10 =( NAMED_UNIT ( * ) SI_UNIT ( $, .STERADIAN. ) SOLID_ANGLE_UNIT ( ) );
#11 = VERTEX_POINT ( 'NONE', #128 ) ;
#12 = PLANE ( 'NONE',  #259 ) ;
#13 = EDGE_CURVE ( 'NONE', #188, #334, #824, .T. ) ;
#14 = PLANE ( 'NONE',  #436 ) ;
#15 = CARTESIAN_POINT ( 'NONE',  ( -3.179999999999999716, 0.1000000000000000056, 3.129999999999999449 ) ) ;
#16 = CARTESIAN_POINT ( 'NONE',  ( -1.395000000000000018, 0.000000000000000000, -2.499999999999999556 ) ) ;
#17 = VERTEX_POINT ( 'NONE', #779 ) ;
#18 = ADVANCED_FACE ( 'NONE', ( #92 ), #9, .F. ) ;
#19 = CARTESIAN_POINT ( 'NONE',  ( -2.454999999999999183, 6.049999999999999822, 2.000000000000002665 ) ) ;
#20 = FACE_OUTER_BOUND ( 'NONE', #119, .T. ) ;
#21 = EDGE_LOOP ( 'NONE', ( #408, #869, #76, #332 ) ) ;
#22 = VECTOR ( 'NONE', #693, 1000.000000000000000 ) ;
#23 = VECTOR ( 'NONE', #662, 1000.000000000000000 ) ;
#24 = LINE ( 'NONE', #183, #69 ) ;
#25 = LINE ( 'NONE', #726, #23 ) ;
#26 = LINE ( 'NONE', #936, #613 ) ;
#27 = ORIENTED_EDGE ( 'NONE', *, *, #483, .T. ) ;
#28 = EDGE_CURVE ( 'NONE', #155, #757, #725, .T. ) ;
#29 = ORIENTED_EDGE ( 'NONE', *, *, #943, .F. ) ;
#30 = APPLICATION_PROTOCOL_DEFINITION ( 'draft international standard', 'automotive_design', 1998, #930 ) ;
#31 = DIRECTION ( 'NONE',  ( 0.000000000000000000, 1.000000000000000000, -0.000000000000000000 ) ) ;
#32 = EDGE_CURVE ( 'NONE', #660, #894, #37, .T. ) ;
#33 = CARTESIAN_POINT ( 'NONE',  ( 0.000000000000000000, 6.049999999999999822, 0.000000000000000000 ) ) ;
#34 = ORIENTED_EDGE ( 'NONE', *, *, #406, .T. ) ;
#35 = CARTESIAN_POINT ( 'NONE',  ( -2.704999999999999627, 6.049999999999999822, 2.000000000000002665 ) ) ;
#36 = DIRECTION ( 'NONE',  ( -0.000000000000000000, -1.000000000000000000, -0.000000000000000000 ) ) ;
#37 = LINE ( 'NONE', #416, #419 ) ;
#38 = DIRECTION ( 'NONE',  ( 1.000000000000000000, 0.000000000000000000, -0.000000000000000000 ) ) ;
#39 = CARTESIAN_POINT ( 'NONE',  ( -2.454999999999999183, 6.049999999999999822, 2.000000000000002665 ) ) ;
#40 = EDGE_CURVE ( 'NONE', #139, #17, #954, .T. ) ;
#41 = LINE ( 'NONE', #428, #96 ) ;
#42 = EDGE_LOOP ( 'NONE', ( #29, #67, #34, #412 ) ) ;
#43 = FACE_OUTER_BOUND ( 'NONE', #314, .T. ) ;
#44 = CARTESIAN_POINT ( 'NONE',  ( 2.644999999999999574, 0.000000000000000000, 2.500000000000000444 ) ) ;
#45 = DIRECTION ( 'NONE',  ( 0.000000000000000000, 1.000000000000000000, 0.000000000000000000 ) ) ;
#46 = VERTEX_POINT ( 'NONE', #798 ) ;
#47 = AXIS2_PLACEMENT_3D ( 'NONE', #507, #598, #53 ) ;
#48 = VECTOR ( 'NONE', #868, 1000.000000000000000 ) ;
#49 = CARTESIAN_POINT ( 'NONE',  ( 3.030000000000000249, 6.099999999999999645, -3.130000000000000338 ) ) ;
#50 = AXIS2_PLACEMENT_3D ( 'NONE', #898, #970, #825 ) ;
#51 = FACE_OUTER_BOUND ( 'NONE', #826, .T. ) ;
#52 = VERTEX_POINT ( 'NONE', #643 ) ;
#53 = DIRECTION ( 'NONE',  ( -1.000000000000000000, 0.000000000000000000, -0.000000000000000000 ) ) ;
#54 = ADVANCED_FACE ( 'NONE', ( #43 ), #499, .T. ) ;
#55 =( LENGTH_UNIT ( ) NAMED_UNIT ( * ) SI_UNIT ( .MILLI., .METRE. ) );
#56 = LINE ( 'NONE', #431, #691 ) ;
#57 = DIRECTION ( 'NONE',  ( -1.000000000000000000, 0.000000000000000000, 0.000000000000000000 ) ) ;
#58 = ORIENTED_EDGE ( 'NONE', *, *, #859, .T. ) ;
#59 = ADVANCED_BREP_SHAPE_REPRESENTATION ( 'XAL6060-472MEB', ( #761, #91, #106, #772, #751 ), #563 ) ;
#60 = EDGE_CURVE ( 'NONE', #583, #538, #492, .T. ) ;
#61 = CARTESIAN_POINT ( 'NONE',  ( -2.704999999999999627, 6.099999999999999645, 2.000000000000002665 ) ) ;
#62 = CARTESIAN_POINT ( 'NONE',  ( -2.704999999999999627, 6.049999999999999822, -1.999999999999997113 ) ) ;
#63 = CARTESIAN_POINT ( 'NONE',  ( -2.644999999999999574, 0.1000000000000000056, 2.500000000000000444 ) ) ;
#64 = EDGE_LOOP ( 'NONE', ( #542, #738, #938, #514 ) ) ;
#65 = LINE ( 'NONE', #226, #271 ) ;
#66 = VECTOR ( 'NONE', #205, 1000.000000000000000 ) ;
#67 = ORIENTED_EDGE ( 'NONE', *, *, #166, .T. ) ;
#68 = STYLED_ITEM ( 'NONE', ( #921 ), #772 ) ;
#69 = VECTOR ( 'NONE', #564, 1000.000000000000000 ) ;
#70 = DIRECTION ( 'NONE',  ( -0.000000000000000000, -0.000000000000000000, 1.000000000000000000 ) ) ;
#71 = ORIENTED_EDGE ( 'NONE', *, *, #555, .F. ) ;
#72 = ORIENTED_EDGE ( 'NONE', *, *, #951, .F. ) ;
#73 = EDGE_CURVE ( 'NONE', #382, #98, #805, .T. ) ;
#74 = PRESENTATION_STYLE_ASSIGNMENT (( #77 ) ) ;
#75 = EDGE_LOOP ( 'NONE', ( #336, #273, #760, #771 ) ) ;
#76 = ORIENTED_EDGE ( 'NONE', *, *, #189, .F. ) ;
#77 = SURFACE_STYLE_USAGE ( .BOTH. , #631 ) ;
#78 = ORIENTED_EDGE ( 'NONE', *, *, #381, .F. ) ;
#79 = DIRECTION ( 'NONE',  ( 7.156449983402669930E-17, 0.000000000000000000, -1.000000000000000000 ) ) ;
#80 = VECTOR ( 'NONE', #322, 1000.000000000000000 ) ;
#81 = AXIS2_PLACEMENT_3D ( 'NONE', #634, #120, #733 ) ;
#82 = DIRECTION ( 'NONE',  ( -0.000000000000000000, -0.000000000000000000, 1.000000000000000000 ) ) ;
#83 = ORIENTED_EDGE ( 'NONE', *, *, #928, .T. ) ;
#84 = CIRCLE ( 'NONE', #736, 0.1499999999999995226 ) ;
#85 = CARTESIAN_POINT ( 'NONE',  ( -3.030000000000000249, 21.33691413990522179, 3.129999999999999449 ) ) ;
#86 = LINE ( 'NONE', #472, #244 ) ;
#87 = DIRECTION ( 'NONE',  ( -1.000000000000000000, 0.000000000000000000, -7.156449983402669930E-17 ) ) ;
#88 = EDGE_CURVE ( 'NONE', #300, #583, #545, .T. ) ;
#89 = CARTESIAN_POINT ( 'NONE',  ( -3.179999999999999716, 6.099999999999999645, -3.130000000000000338 ) ) ;
#90 = DIRECTION ( 'NONE',  ( 1.000000000000000000, -0.000000000000000000, 7.156449983402669930E-17 ) ) ;
#91 = MANIFOLD_SOLID_BREP ( 'Boss-Extrude1[2]', #687 ) ;
#92 = FACE_OUTER_BOUND ( 'NONE', #478, .T. ) ;
#93 = AXIS2_PLACEMENT_3D ( 'NONE', #670, #968, #625 ) ;
#94 = DIRECTION ( 'NONE',  ( 0.000000000000000000, -0.000000000000000000, 1.000000000000000000 ) ) ;
#95 = EDGE_CURVE ( 'NONE', #389, #46, #283, .T. ) ;
#96 = VECTOR ( 'NONE', #557, 1000.000000000000000 ) ;
#97 = CARTESIAN_POINT ( 'NONE',  ( 3.180000000000000160, 0.1000000000000000056, -3.130000000000000338 ) ) ;
#98 = VERTEX_POINT ( 'NONE', #648 ) ;
#99 = ORIENTED_EDGE ( 'NONE', *, *, #95, .T. ) ;
#100 = EDGE_CURVE ( 'NONE', #131, #838, #267, .T. ) ;
#101 = FACE_OUTER_BOUND ( 'NONE', #724, .T. ) ;
#102 = ORIENTED_EDGE ( 'NONE', *, *, #282, .F. ) ;
#103 = EDGE_LOOP ( 'NONE', ( #766, #290, #730, #844 ) ) ;
#104 = PLANE ( 'NONE',  #420 ) ;
#105 = VERTEX_POINT ( 'NONE', #732 ) ;
#106 = MANIFOLD_SOLID_BREP ( 'Cut-Extrude1', #242 ) ;
#107 = CARTESIAN_POINT ( 'NONE',  ( -2.644999999999999574, 0.000000000000000000, -2.499999999999999556 ) ) ;
#108 = ORIENTED_EDGE ( 'NONE', *, *, #498, .F. ) ;
#109 = VECTOR ( 'NONE', #621, 1000.000000000000000 ) ;
#110 = VECTOR ( 'NONE', #654, 1000.000000000000000 ) ;
#111 = EDGE_CURVE ( 'NONE', #979, #366, #571, .T. ) ;
#112 = DIRECTION ( 'NONE',  ( 1.000000000000000000, 0.000000000000000000, 0.000000000000000000 ) ) ;
#113 = CARTESIAN_POINT ( 'NONE',  ( -3.030000000000000249, 0.1000000000000000056, -3.130000000000000338 ) ) ;
#114 = ORIENTED_EDGE ( 'NONE', *, *, #527, .T. ) ;
#115 = DIRECTION ( 'NONE',  ( -1.000000000000000000, -0.000000000000000000, -7.156449983402669930E-17 ) ) ;
#116 = LINE ( 'NONE', #426, #291 ) ;
#117 = EDGE_CURVE ( 'NONE', #137, #334, #913, .T. ) ;
#118 = DIRECTION ( 'NONE',  ( 0.000000000000000000, 0.000000000000000000, -1.000000000000000000 ) ) ;
#119 = EDGE_LOOP ( 'NONE', ( #570, #819, #529, #496 ) ) ;
#120 = DIRECTION ( 'NONE',  ( 0.000000000000000000, 1.000000000000000000, 0.000000000000000000 ) ) ;
#121 = EDGE_CURVE ( 'NONE', #511, #52, #288, .T. ) ;
#122 = DIRECTION ( 'NONE',  ( 0.000000000000000000, 0.000000000000000000, 1.000000000000000000 ) ) ;
#123 = ORIENTED_EDGE ( 'NONE', *, *, #391, .F. ) ;
#124 = DIRECTION ( 'NONE',  ( -1.000000000000000000, 0.000000000000000000, 0.000000000000000000 ) ) ;
#125 = AXIS2_PLACEMENT_3D ( 'NONE', #536, #765, #550 ) ;
#126 = MECHANICAL_DESIGN_GEOMETRIC_PRESENTATION_REPRESENTATION (  '', ( #374 ), #494 ) ;
#127 = SURFACE_STYLE_FILL_AREA ( #508 ) ;
#128 = CARTESIAN_POINT ( 'NONE',  ( -3.179999999999999716, 0.1000000000000000056, 3.129999999999999449 ) ) ;
#129 = DIRECTION ( 'NONE',  ( 0.000000000000000000, 1.000000000000000000, 0.000000000000000000 ) ) ;
#130 = LINE ( 'NONE', #208, #658 ) ;
#131 = VERTEX_POINT ( 'NONE', #896 ) ;
#132 = EDGE_CURVE ( 'NONE', #742, #533, #531, .T. ) ;
#133 = PLANE ( 'NONE',  #403 ) ;
#134 =( NAMED_UNIT ( * ) PLANE_ANGLE_UNIT ( ) SI_UNIT ( $, .RADIAN. ) );
#135 = DIRECTION ( 'NONE',  ( 0.000000000000000000, 0.000000000000000000, -1.000000000000000000 ) ) ;
#136 = ORIENTED_EDGE ( 'NONE', *, *, #636, .F. ) ;
#137 = VERTEX_POINT ( 'NONE', #516 ) ;
#138 = CARTESIAN_POINT ( 'NONE',  ( 1.395000000000000018, 0.1000000000000000056, -2.499999999999999556 ) ) ;
#139 = VERTEX_POINT ( 'NONE', #743 ) ;
#140 = CARTESIAN_POINT ( 'NONE',  ( -2.704999999999999627, 6.049999999999999822, 2.000000000000002665 ) ) ;
#141 = PRODUCT_DEFINITION_SHAPE ( 'NONE', 'NONE',  #891 ) ;
#142 = DIRECTION ( 'NONE',  ( 0.000000000000000000, 1.000000000000000000, 0.000000000000000000 ) ) ;
#143 = FACE_OUTER_BOUND ( 'NONE', #209, .T. ) ;
#144 = VERTEX_POINT ( 'NONE', #61 ) ;
#145 = LINE ( 'NONE', #977, #835 ) ;
#146 = AXIS2_PLACEMENT_3D ( 'NONE', #731, #864, #456 ) ;
#147 = DIRECTION ( 'NONE',  ( -0.000000000000000000, -1.000000000000000000, -0.000000000000000000 ) ) ;
#148 = VECTOR ( 'NONE', #124, 1000.000000000000000 ) ;
#149 = ADVANCED_FACE ( 'NONE', ( #671 ), #840, .F. ) ;
#150 = ORIENTED_EDGE ( 'NONE', *, *, #88, .T. ) ;
#151 = DIRECTION ( 'NONE',  ( 0.000000000000000000, 0.000000000000000000, -1.000000000000000000 ) ) ;
#152 = ORIENTED_EDGE ( 'NONE', *, *, #704, .F. ) ;
#153 = CARTESIAN_POINT ( 'NONE',  ( -3.030000000000000249, 0.1000000000000000056, 3.129999999999999449 ) ) ;
#154 = CARTESIAN_POINT ( 'NONE',  ( -2.454999999999999183, 6.049999999999999822, -1.999999999999997113 ) ) ;
#155 = VERTEX_POINT ( 'NONE', #905 ) ;
#156 = PLANE ( 'NONE',  #941 ) ;
#157 = LINE ( 'NONE', #463, #22 ) ;
#158 = ORIENTED_EDGE ( 'NONE', *, *, #928, .F. ) ;
#159 = ADVANCED_FACE ( 'NONE', ( #749 ), #220, .T. ) ;
#160 = CARTESIAN_POINT ( 'NONE',  ( -2.704999999999999627, 6.099999999999999645, 2.000000000000002665 ) ) ;
#161 = DIRECTION ( 'NONE',  ( -0.000000000000000000, 0.000000000000000000, 1.000000000000000000 ) ) ;
#162 = MECHANICAL_DESIGN_GEOMETRIC_PRESENTATION_REPRESENTATION (  '', ( #211 ), #354 ) ;
#163 = COLOUR_RGB ( '',0.7921568627450980005, 0.8196078431372548767, 0.9333333333333333481 ) ;
#164 = CIRCLE ( 'NONE', #50, 0.1499999999999995226 ) ;
#165 = CARTESIAN_POINT ( 'NONE',  ( -3.030000000000000249, 0.1000000000000000056, 3.279999999999999361 ) ) ;
#166 = EDGE_CURVE ( 'NONE', #331, #538, #679, .T. ) ;
#167 = DIRECTION ( 'NONE',  ( 0.000000000000000000, 0.000000000000000000, -1.000000000000000000 ) ) ;
#168 = DIRECTION ( 'NONE',  ( 1.000000000000000000, 0.000000000000000000, 0.000000000000000000 ) ) ;
#169 = PLANE ( 'NONE',  #561 ) ;
#170 = DIRECTION ( 'NONE',  ( -1.000000000000000000, -0.000000000000000000, -0.000000000000000000 ) ) ;
#171 = SHAPE_DEFINITION_REPRESENTATION ( #141, #59 ) ;
#172 = CARTESIAN_POINT ( 'NONE',  ( 3.030000000000000693, 0.1000000000000000056, 3.279999999999999805 ) ) ;
#173 = DIRECTION ( 'NONE',  ( 0.000000000000000000, 0.000000000000000000, -1.000000000000000000 ) ) ;
#174 = ORIENTED_EDGE ( 'NONE', *, *, #834, .T. ) ;
#175 = ORIENTED_EDGE ( 'NONE', *, *, #870, .T. ) ;
#176 = ADVANCED_FACE ( 'NONE', ( #948 ), #351, .T. ) ;
#177 =( LENGTH_UNIT ( ) NAMED_UNIT ( * ) SI_UNIT ( .MILLI., .METRE. ) );
#178 = PRESENTATION_LAYER_ASSIGNMENT (  '', '', ( #211 ) ) ;
#179 =( GEOMETRIC_REPRESENTATION_CONTEXT ( 3 ) GLOBAL_UNCERTAINTY_ASSIGNED_CONTEXT ( ( #219 ) ) GLOBAL_UNIT_ASSIGNED_CONTEXT ( ( #232, #400, #534 ) ) REPRESENTATION_CONTEXT ( 'NONE', 'WORKASPACE' ) );
#180 = DIRECTION ( 'NONE',  ( -1.000000000000000000, 0.000000000000000000, 0.000000000000000000 ) ) ;
#181 = VERTEX_POINT ( 'NONE', #525 ) ;
#182 = ORIENTED_EDGE ( 'NONE', *, *, #111, .T. ) ;
#183 = CARTESIAN_POINT ( 'NONE',  ( -2.644999999999999574, 0.000000000000000000, 2.500000000000000444 ) ) ;
#184 = PLANE ( 'NONE',  #836 ) ;
#185 = ORIENTED_EDGE ( 'NONE', *, *, #391, .T. ) ;
#186 = CARTESIAN_POINT ( 'NONE',  ( -2.454999999999999183, 6.049999999999999822, 2.000000000000002665 ) ) ;
#187 = LINE ( 'NONE', #349, #863 ) ;
#188 = VERTEX_POINT ( 'NONE', #833 ) ;
#189 = EDGE_CURVE ( 'NONE', #252, #155, #145, .T. ) ;
#190 = CARTESIAN_POINT ( 'NONE',  ( 2.644999999999999574, 0.000000000000000000, 2.500000000000000444 ) ) ;
#191 = LINE ( 'NONE', #405, #294 ) ;
#192 = ORIENTED_EDGE ( 'NONE', *, *, #384, .T. ) ;
#193 = CARTESIAN_POINT ( 'NONE',  ( -3.030000000000000249, 0.1000000000000000056, 3.129999999999999449 ) ) ;
#194 = ORIENTED_EDGE ( 'NONE', *, *, #40, .T. ) ;
#195 = VECTOR ( 'NONE', #170, 1000.000000000000000 ) ;
#196 = EDGE_CURVE ( 'NONE', #131, #886, #65, .T. ) ;
#197 = DIRECTION ( 'NONE',  ( 0.000000000000000000, 0.000000000000000000, 1.000000000000000000 ) ) ;
#198 = CARTESIAN_POINT ( 'NONE',  ( -2.644999999999999574, 0.1000000000000000056, -2.499999999999999556 ) ) ;
#199 = ORIENTED_EDGE ( 'NONE', *, *, #551, .T. ) ;
#200 = SURFACE_STYLE_FILL_AREA ( #884 ) ;
#201 = ADVANCED_FACE ( 'NONE', ( #755 ), #823, .F. ) ;
#202 = DIRECTION ( 'NONE',  ( 1.000000000000000000, -0.000000000000000000, 0.000000000000000000 ) ) ;
#203 = ORIENTED_EDGE ( 'NONE', *, *, #100, .T. ) ;
#204 = LINE ( 'NONE', #287, #148 ) ;
#205 = DIRECTION ( 'NONE',  ( 1.000000000000000000, -0.000000000000000000, -0.000000000000000000 ) ) ;
#206 = DIRECTION ( 'NONE',  ( 0.000000000000000000, 1.000000000000000000, 0.000000000000000000 ) ) ;
#207 = ADVANCED_FACE ( 'NONE', ( #739 ), #449, .F. ) ;
#208 = CARTESIAN_POINT ( 'NONE',  ( 3.180000000000000160, 0.1000000000000000056, 3.129999999999999449 ) ) ;
#209 = EDGE_LOOP ( 'NONE', ( #828, #439, #926, #502 ) ) ;
#210 = CLOSED_SHELL ( 'NONE', ( #812, #728, #311, #937, #54, #532 ) ) ;
#211 = STYLED_ITEM ( 'NONE', ( #235 ), #106 ) ;
#212 = AXIS2_PLACEMENT_3D ( 'NONE', #935, #955, #255 ) ;
#213 = CARTESIAN_POINT ( 'NONE',  ( -3.179999999999999716, 21.33691413990522179, -3.130000000000000338 ) ) ;
#214 = FACE_OUTER_BOUND ( 'NONE', #231, .T. ) ;
#215 = VECTOR ( 'NONE', #168, 1000.000000000000000 ) ;
#216 = VERTEX_POINT ( 'NONE', #591 ) ;
#217 = FACE_OUTER_BOUND ( 'NONE', #568, .T. ) ;
#218 = ORIENTED_EDGE ( 'NONE', *, *, #117, .T. ) ;
#219 = UNCERTAINTY_MEASURE_WITH_UNIT (LENGTH_MEASURE( 1.000000000000000082E-05 ), #232, 'distance_accuracy_value', 'NONE');
#220 = PLANE ( 'NONE',  #559 ) ;
#221 = DIRECTION ( 'NONE',  ( -0.000000000000000000, 0.000000000000000000, 1.000000000000000000 ) ) ;
#222 = ORIENTED_EDGE ( 'NONE', *, *, #919, .T. ) ;
#223 = ORIENTED_EDGE ( 'NONE', *, *, #196, .F. ) ;
#224 = CARTESIAN_POINT ( 'NONE',  ( 1.395000000000000018, 0.1000000000000000056, -2.499999999999999556 ) ) ;
#225 = ORIENTED_EDGE ( 'NONE', *, *, #132, .T. ) ;
#226 = CARTESIAN_POINT ( 'NONE',  ( -2.454999999999999183, 6.049999999999999822, 2.000000000000002665 ) ) ;
#227 = AXIS2_PLACEMENT_3D ( 'NONE', #841, #386, #161 ) ;
#228 = CARTESIAN_POINT ( 'NONE',  ( -2.704999999999999627, 6.099999999999999645, -1.999999999999997113 ) ) ;
#229 = VECTOR ( 'NONE', #569, 1000.000000000000000 ) ;
#230 = VECTOR ( 'NONE', #441, 1000.000000000000000 ) ;
#231 = EDGE_LOOP ( 'NONE', ( #842, #746, #222, #383 ) ) ;
#232 =( LENGTH_UNIT ( ) NAMED_UNIT ( * ) SI_UNIT ( .MILLI., .METRE. ) );
#233 = ORIENTED_EDGE ( 'NONE', *, *, #32, .F. ) ;
#234 = FACE_OUTER_BOUND ( 'NONE', #286, .T. ) ;
#235 = PRESENTATION_STYLE_ASSIGNMENT (( #368 ) ) ;
#236 = ADVANCED_FACE ( 'NONE', ( #665 ), #962, .F. ) ;
#237 = VERTEX_POINT ( 'NONE', #584 ) ;
#238 = LINE ( 'NONE', #849, #626 ) ;
#239 = ADVANCED_FACE ( 'NONE', ( #292 ), #133, .T. ) ;
#240 = ORIENTED_EDGE ( 'NONE', *, *, #196, .T. ) ;
#241 = DIRECTION ( 'NONE',  ( 0.000000000000000000, 0.000000000000000000, 1.000000000000000000 ) ) ;
#242 = CLOSED_SHELL ( 'NONE', ( #305, #378, #780, #370, #680, #149, #3, #649, #239, #822, #236, #276, #18, #883, #201 ) ) ;
#243 = VECTOR ( 'NONE', #173, 1000.000000000000000 ) ;
#244 = VECTOR ( 'NONE', #541, 1000.000000000000000 ) ;
#245 = LINE ( 'NONE', #254, #865 ) ;
#246 = CIRCLE ( 'NONE', #360, 0.1499999999999999667 ) ;
#247 = DIRECTION ( 'NONE',  ( 0.000000000000000000, 0.000000000000000000, -1.000000000000000000 ) ) ;
#248 = ORIENTED_EDGE ( 'NONE', *, *, #807, .T. ) ;
#249 = CARTESIAN_POINT ( 'NONE',  ( 0.000000000000000000, 0.000000000000000000, 0.000000000000000000 ) ) ;
#250 = SURFACE_STYLE_USAGE ( .BOTH. , #313 ) ;
#251 = CARTESIAN_POINT ( 'NONE',  ( -1.395000000000000018, 0.1000000000000000056, 2.500000000000000444 ) ) ;
#252 = VERTEX_POINT ( 'NONE', #140 ) ;
#253 = EDGE_CURVE ( 'NONE', #789, #966, #367, .T. ) ;
#254 = CARTESIAN_POINT ( 'NONE',  ( -2.644999999999999574, 0.1000000000000000056, 2.500000000000000444 ) ) ;
#255 = DIRECTION ( 'NONE',  ( 0.000000000000000000, 0.000000000000000000, -1.000000000000000000 ) ) ;
#256 = CARTESIAN_POINT ( 'NONE',  ( -2.704999999999999627, 6.049999999999999822, 2.000000000000002665 ) ) ;
#257 = CYLINDRICAL_SURFACE ( 'NONE', #752, 0.1499999999999995226 ) ;
#258 = ORIENTED_EDGE ( 'NONE', *, *, #359, .F. ) ;
#259 = AXIS2_PLACEMENT_3D ( 'NONE', #929, #858, #319 ) ;
#260 = CIRCLE ( 'NONE', #81, 0.1499999999999999667 ) ;
#261 = CARTESIAN_POINT ( 'NONE',  ( 3.180000000000000160, 21.33691413990522179, -3.130000000000000338 ) ) ;
#262 = ORIENTED_EDGE ( 'NONE', *, *, #573, .F. ) ;
#263 = CARTESIAN_POINT ( 'NONE',  ( 2.644999999999999574, 0.1000000000000000056, 2.500000000000000444 ) ) ;
#264 = DIRECTION ( 'NONE',  ( 0.000000000000000000, 0.000000000000000000, 1.000000000000000000 ) ) ;
#265 = LINE ( 'NONE', #949, #942 ) ;
#266 = UNCERTAINTY_MEASURE_WITH_UNIT (LENGTH_MEASURE( 1.000000000000000082E-05 ), #699, 'distance_accuracy_value', 'NONE');
#267 = LINE ( 'NONE', #39, #702 ) ;
#268 = EDGE_CURVE ( 'NONE', #901, #610, #204, .T. ) ;
#269 = DIRECTION ( 'NONE',  ( -1.000000000000000000, -0.000000000000000000, -0.000000000000000000 ) ) ;
#270 = FACE_OUTER_BOUND ( 'NONE', #1, .T. ) ;
#271 = VECTOR ( 'NONE', #685, 1000.000000000000000 ) ;
#272 = CARTESIAN_POINT ( 'NONE',  ( -2.454999999999999183, 6.099999999999999645, -1.999999999999997113 ) ) ;
#273 = ORIENTED_EDGE ( 'NONE', *, *, #796, .F. ) ;
#274 = VECTOR ( 'NONE', #112, 1000.000000000000000 ) ;
#275 = VECTOR ( 'NONE', #487, 1000.000000000000000 ) ;
#276 = ADVANCED_FACE ( 'NONE', ( #437 ), #895, .F. ) ;
#277 = CARTESIAN_POINT ( 'NONE',  ( -3.030000000000000249, 0.1000000000000000056, -3.280000000000000249 ) ) ;
#278 = CARTESIAN_POINT ( 'NONE',  ( -3.030000000000000249, 21.33691413990522179, -3.130000000000000338 ) ) ;
#279 = LINE ( 'NONE', #62, #230 ) ;
#280 = DIRECTION ( 'NONE',  ( 0.000000000000000000, 0.000000000000000000, -1.000000000000000000 ) ) ;
#281 = VERTEX_POINT ( 'NONE', #690 ) ;
#282 = EDGE_CURVE ( 'NONE', #979, #660, #395, .T. ) ;
#283 = LINE ( 'NONE', #263, #952 ) ;
#284 = DIRECTION ( 'NONE',  ( 0.000000000000000000, -0.000000000000000000, 1.000000000000000000 ) ) ;
#285 = FACE_OUTER_BOUND ( 'NONE', #620, .T. ) ;
#286 = EDGE_LOOP ( 'NONE', ( #588, #976, #882, #754 ) ) ;
#287 = CARTESIAN_POINT ( 'NONE',  ( 2.644999999999999574, 0.1000000000000000056, -2.499999999999999556 ) ) ;
#288 = LINE ( 'NONE', #228, #914 ) ;
#289 = LINE ( 'NONE', #519, #597 ) ;
#290 = ORIENTED_EDGE ( 'NONE', *, *, #73, .F. ) ;
#291 = VECTOR ( 'NONE', #476, 1000.000000000000000 ) ;
#292 = FACE_OUTER_BOUND ( 'NONE', #931, .T. ) ;
#293 = VECTOR ( 'NONE', #147, 1000.000000000000000 ) ;
#294 = VECTOR ( 'NONE', #816, 1000.000000000000000 ) ;
#295 = DIRECTION ( 'NONE',  ( -7.156449983402669930E-17, 0.000000000000000000, 1.000000000000000000 ) ) ;
#296 = PLANE ( 'NONE',  #297 ) ;
#297 = AXIS2_PLACEMENT_3D ( 'NONE', #369, #135, #517 ) ;
#298 = EDGE_CURVE ( 'NONE', #757, #216, #407, .T. ) ;
#299 = PLANE ( 'NONE',  #451 ) ;
#300 = VERTEX_POINT ( 'NONE', #97 ) ;
#301 = DIRECTION ( 'NONE',  ( 0.000000000000000000, -0.000000000000000000, -1.000000000000000000 ) ) ;
#302 = CARTESIAN_POINT ( 'NONE',  ( -3.030000000000000249, 21.33691413990522179, -3.280000000000000249 ) ) ;
#303 = LINE ( 'NONE', #960, #644 ) ;
#304 = VERTEX_POINT ( 'NONE', #8 ) ;
#305 = ADVANCED_FACE ( 'NONE', ( #401 ), #782, .T. ) ;
#306 = CARTESIAN_POINT ( 'NONE',  ( -2.454999999999999183, 6.049999999999999822, 2.000000000000002665 ) ) ;
#307 = CYLINDRICAL_SURFACE ( 'NONE', #735, 0.1499999999999999667 ) ;
#308 = ORIENTED_EDGE ( 'NONE', *, *, #846, .F. ) ;
#309 = DIRECTION ( 'NONE',  ( -0.000000000000000000, -1.000000000000000000, -0.000000000000000000 ) ) ;
#310 = VECTOR ( 'NONE', #90, 1000.000000000000000 ) ;
#311 = ADVANCED_FACE ( 'NONE', ( #234 ), #918, .T. ) ;
#312 = VECTOR ( 'NONE', #808, 1000.000000000000000 ) ;
#313 = SURFACE_SIDE_STYLE ('',( #549 ) ) ;
#314 = EDGE_LOOP ( 'NONE', ( #223, #434, #262, #814 ) ) ;
#315 = FACE_OUTER_BOUND ( 'NONE', #676, .T. ) ;
#316 = EDGE_CURVE ( 'NONE', #518, #131, #695, .T. ) ;
#317 = ORIENTED_EDGE ( 'NONE', *, *, #111, .F. ) ;
#318 = ORIENTED_EDGE ( 'NONE', *, *, #607, .T. ) ;
#319 = DIRECTION ( 'NONE',  ( 1.000000000000000000, 0.000000000000000000, -0.000000000000000000 ) ) ;
#320 = CARTESIAN_POINT ( 'NONE',  ( -3.030000000000000249, 6.099999999999999645, 3.279999999999999361 ) ) ;
#321 = DIRECTION ( 'NONE',  ( 0.000000000000000000, 0.000000000000000000, -1.000000000000000000 ) ) ;
#322 = DIRECTION ( 'NONE',  ( 1.000000000000000000, 0.000000000000000000, 0.000000000000000000 ) ) ;
#323 = STYLED_ITEM ( 'NONE', ( #585 ), #91 ) ;
#324 = AXIS2_PLACEMENT_3D ( 'NONE', #495, #803, #650 ) ;
#325 = DIRECTION ( 'NONE',  ( -0.000000000000000000, 1.000000000000000000, -0.000000000000000000 ) ) ;
#326 = ADVANCED_FACE ( 'NONE', ( #315 ), #12, .F. ) ;
#327 = CARTESIAN_POINT ( 'NONE',  ( -3.179999999999999716, 21.33691413990522179, 3.129999999999999449 ) ) ;
#328 = ORIENTED_EDGE ( 'NONE', *, *, #445, .F. ) ;
#329 = CARTESIAN_POINT ( 'NONE',  ( 0.000000000000000000, 6.099999999999999645, 0.000000000000000000 ) ) ;
#330 = DIRECTION ( 'NONE',  ( 0.000000000000000000, 0.000000000000000000, 1.000000000000000000 ) ) ;
#331 = VERTEX_POINT ( 'NONE', #540 ) ;
#332 = ORIENTED_EDGE ( 'NONE', *, *, #470, .T. ) ;
#333 = CARTESIAN_POINT ( 'NONE',  ( -2.704999999999999627, 6.099999999999999645, 2.000000000000002665 ) ) ;
#334 = VERTEX_POINT ( 'NONE', #16 ) ;
#335 = CARTESIAN_POINT ( 'NONE',  ( -2.704999999999999627, 6.099999999999999645, 2.000000000000002665 ) ) ;
#336 = ORIENTED_EDGE ( 'NONE', *, *, #73, .T. ) ;
#337 = PRODUCT_DEFINITION_CONTEXT ( 'detailed design', #387, 'design' ) ;
#338 = EDGE_CURVE ( 'NONE', #966, #188, #473, .T. ) ;
#339 = DIRECTION ( 'NONE',  ( 0.000000000000000000, 1.000000000000000000, -0.000000000000000000 ) ) ;
#340 = VECTOR ( 'NONE', #602, 1000.000000000000000 ) ;
#341 = AXIS2_PLACEMENT_3D ( 'NONE', #329, #206, #94 ) ;
#342 = PLANE ( 'NONE',  #435 ) ;
#343 = ORIENTED_EDGE ( 'NONE', *, *, #60, .T. ) ;
#344 = AXIS2_PLACEMENT_3D ( 'NONE', #811, #963, #500 ) ;
#345 = PLANE ( 'NONE',  #324 ) ;
#346 = FILL_AREA_STYLE_COLOUR ( '', #784 ) ;
#347 = CARTESIAN_POINT ( 'NONE',  ( 0.000000000000000000, 0.000000000000000000, 0.000000000000000000 ) ) ;
#348 = EDGE_CURVE ( 'NONE', #144, #838, #777, .T. ) ;
#349 = CARTESIAN_POINT ( 'NONE',  ( 2.644999999999999574, 0.000000000000000000, -2.499999999999999556 ) ) ;
#350 = ORIENTED_EDGE ( 'NONE', *, *, #750, .F. ) ;
#351 = PLANE ( 'NONE',  #146 ) ;
#352 = CARTESIAN_POINT ( 'NONE',  ( 3.030000000000000249, 0.1000000000000000056, -3.130000000000000338 ) ) ;
#353 = DIRECTION ( 'NONE',  ( 0.000000000000000000, 0.000000000000000000, -1.000000000000000000 ) ) ;
#354 =( GEOMETRIC_REPRESENTATION_CONTEXT ( 3 ) GLOBAL_UNCERTAINTY_ASSIGNED_CONTEXT ( ( #554 ) ) GLOBAL_UNIT_ASSIGNED_CONTEXT ( ( #55, #134, #526 ) ) REPRESENTATION_CONTEXT ( 'NONE', 'WORKASPACE' ) );
#355 = LINE ( 'NONE', #447, #467 ) ;
#356 = ORIENTED_EDGE ( 'NONE', *, *, #870, .F. ) ;
#357 = COLOUR_RGB ( '',1.000000000000000000, 1.000000000000000000, 1.000000000000000000 ) ;
#358 = UNCERTAINTY_MEASURE_WITH_UNIT (LENGTH_MEASURE( 1.000000000000000082E-05 ), #177, 'distance_accuracy_value', 'NONE');
#359 = EDGE_CURVE ( 'NONE', #596, #11, #701, .T. ) ;
#360 = AXIS2_PLACEMENT_3D ( 'NONE', #800, #129, #197 ) ;
#361 = DIRECTION ( 'NONE',  ( 0.000000000000000000, 1.000000000000000000, 0.000000000000000000 ) ) ;
#362 = LINE ( 'NONE', #63, #900 ) ;
#363 = EDGE_LOOP ( 'NONE', ( #682, #710, #558, #218 ) ) ;
#364 = FACE_OUTER_BOUND ( 'NONE', #491, .T. ) ;
#365 = LINE ( 'NONE', #837, #855 ) ;
#366 = VERTEX_POINT ( 'NONE', #165 ) ;
#367 = LINE ( 'NONE', #887, #340 ) ;
#368 = SURFACE_STYLE_USAGE ( .BOTH. , #712 ) ;
#369 = CARTESIAN_POINT ( 'NONE',  ( -2.704999999999999627, 6.049999999999999822, -1.999999999999997113 ) ) ;
#370 = ADVANCED_FACE ( 'NONE', ( #20 ), #156, .F. ) ;
#371 = DIRECTION ( 'NONE',  ( 0.000000000000000000, 1.000000000000000000, 0.000000000000000000 ) ) ;
#372 = ORIENTED_EDGE ( 'NONE', *, *, #268, .T. ) ;
#373 = CIRCLE ( 'NONE', #450, 0.1499999999999995226 ) ;
#374 = STYLED_ITEM ( 'NONE', ( #74 ), #761 ) ;
#375 = DIRECTION ( 'NONE',  ( 0.000000000000000000, -0.000000000000000000, 1.000000000000000000 ) ) ;
#376 = DIRECTION ( 'NONE',  ( -0.000000000000000000, -1.000000000000000000, -0.000000000000000000 ) ) ;
#377 = STYLED_ITEM ( 'NONE', ( #639 ), #59 ) ;
#378 = ADVANCED_FACE ( 'NONE', ( #544 ), #465, .F. ) ;
#379 = LINE ( 'NONE', #595, #530 ) ;
#380 = ORIENTED_EDGE ( 'NONE', *, *, #13, .F. ) ;
#381 = EDGE_CURVE ( 'NONE', #838, #304, #769, .T. ) ;
#382 = VERTEX_POINT ( 'NONE', #612 ) ;
#383 = ORIENTED_EDGE ( 'NONE', *, *, #830, .T. ) ;
#384 = EDGE_CURVE ( 'NONE', #216, #52, #845, .T. ) ;
#385 = DIRECTION ( 'NONE',  ( 0.000000000000000000, -1.000000000000000000, 0.000000000000000000 ) ) ;
#386 = DIRECTION ( 'NONE',  ( -1.000000000000000000, 0.000000000000000000, -0.000000000000000000 ) ) ;
#387 = APPLICATION_CONTEXT ( 'automotive_design' ) ;
#388 = DIRECTION ( 'NONE',  ( -0.000000000000000000, -1.000000000000000000, -0.000000000000000000 ) ) ;
#389 = VERTEX_POINT ( 'NONE', #390 ) ;
#390 = CARTESIAN_POINT ( 'NONE',  ( 1.395000000000000018, 0.1000000000000000056, 2.500000000000000444 ) ) ;
#391 = EDGE_CURVE ( 'NONE', #462, #583, #238, .T. ) ;
#392 = VECTOR ( 'NONE', #309, 1000.000000000000000 ) ;
#393 = AXIS2_PLACEMENT_3D ( 'NONE', #906, #831, #280 ) ;
#394 = ORIENTED_EDGE ( 'NONE', *, *, #253, .T. ) ;
#395 = LINE ( 'NONE', #632, #310 ) ;
#396 = LINE ( 'NONE', #333, #215 ) ;
#397 = DIRECTION ( 'NONE',  ( 1.000000000000000000, 0.000000000000000000, 7.156449983402668697E-17 ) ) ;
#398 = EDGE_CURVE ( 'NONE', #366, #894, #469, .T. ) ;
#399 =( NAMED_UNIT ( * ) PLANE_ANGLE_UNIT ( ) SI_UNIT ( $, .RADIAN. ) );
#400 =( NAMED_UNIT ( * ) PLANE_ANGLE_UNIT ( ) SI_UNIT ( $, .RADIAN. ) );
#401 = FACE_OUTER_BOUND ( 'NONE', #790, .T. ) ;
#402 = ORIENTED_EDGE ( 'NONE', *, *, #951, .T. ) ;
#403 = AXIS2_PLACEMENT_3D ( 'NONE', #153, #385, #301 ) ;
#404 = CIRCLE ( 'NONE', #546, 0.1499999999999995226 ) ;
#405 = CARTESIAN_POINT ( 'NONE',  ( -2.704999999999999627, 6.049999999999999822, -1.999999999999997113 ) ) ;
#406 = EDGE_CURVE ( 'NONE', #538, #533, #373, .T. ) ;
#407 = LINE ( 'NONE', #698, #195 ) ;
#408 = ORIENTED_EDGE ( 'NONE', *, *, #964, .T. ) ;
#409 = ORIENTED_EDGE ( 'NONE', *, *, #587, .F. ) ;
#410 = DIRECTION ( 'NONE',  ( 0.000000000000000000, 0.000000000000000000, -1.000000000000000000 ) ) ;
#411 = EDGE_CURVE ( 'NONE', #304, #485, #946, .T. ) ;
#412 = ORIENTED_EDGE ( 'NONE', *, *, #132, .F. ) ;
#413 =( NAMED_UNIT ( * ) SI_UNIT ( $, .STERADIAN. ) SOLID_ANGLE_UNIT ( ) );
#414 = FACE_OUTER_BOUND ( 'NONE', #75, .T. ) ;
#415 = EDGE_CURVE ( 'NONE', #216, #252, #635, .T. ) ;
#416 = CARTESIAN_POINT ( 'NONE',  ( 3.030000000000000693, 21.33691413990522179, 3.279999999999999805 ) ) ;
#417 = AXIS2_PLACEMENT_3D ( 'NONE', #347, #652, #284 ) ;
#418 = PRODUCT_DEFINITION_FORMATION_WITH_SPECIFIED_SOURCE ( 'ANY', '', #974, .NOT_KNOWN. ) ;
#419 = VECTOR ( 'NONE', #567, 1000.000000000000000 ) ;
#420 = AXIS2_PLACEMENT_3D ( 'NONE', #881, #501, #794 ) ;
#421 = CARTESIAN_POINT ( 'NONE',  ( -2.704999999999999627, 6.099999999999999645, -1.999999999999997113 ) ) ;
#422 = DIRECTION ( 'NONE',  ( 0.000000000000000000, 0.000000000000000000, -1.000000000000000000 ) ) ;
#423 = CARTESIAN_POINT ( 'NONE',  ( -2.454999999999999183, 6.099999999999999645, 2.000000000000002665 ) ) ;
#424 = CARTESIAN_POINT ( 'NONE',  ( 3.030000000000000249, 6.099999999999999645, -3.279999999999999805 ) ) ;
#425 = ORIENTED_EDGE ( 'NONE', *, *, #415, .T. ) ;
#426 = CARTESIAN_POINT ( 'NONE',  ( 2.644999999999999574, 0.1000000000000000056, -2.499999999999999556 ) ) ;
#427 = EDGE_CURVE ( 'NONE', #139, #464, #484, .T. ) ;
#428 = CARTESIAN_POINT ( 'NONE',  ( -2.704999999999999627, 6.049999999999999822, 2.000000000000002665 ) ) ;
#429 = ORIENTED_EDGE ( 'NONE', *, *, #406, .F. ) ;
#430 = DIRECTION ( 'NONE',  ( 1.000000000000000000, -0.000000000000000000, -0.000000000000000000 ) ) ;
#431 = CARTESIAN_POINT ( 'NONE',  ( 2.644999999999999574, 0.1000000000000000056, 2.500000000000000444 ) ) ;
#432 =( GEOMETRIC_REPRESENTATION_CONTEXT ( 3 ) GLOBAL_UNCERTAINTY_ASSIGNED_CONTEXT ( ( #967 ) ) GLOBAL_UNIT_ASSIGNED_CONTEXT ( ( #810, #503, #878 ) ) REPRESENTATION_CONTEXT ( 'NONE', 'WORKASPACE' ) );
#433 = DIRECTION ( 'NONE',  ( 0.000000000000000000, 0.000000000000000000, 1.000000000000000000 ) ) ;
#434 = ORIENTED_EDGE ( 'NONE', *, *, #316, .F. ) ;
#435 = AXIS2_PLACEMENT_3D ( 'NONE', #885, #753, #659 ) ;
#436 = AXIS2_PLACEMENT_3D ( 'NONE', #475, #471, #861 ) ;
#437 = FACE_OUTER_BOUND ( 'NONE', #21, .T. ) ;
#438 = FACE_OUTER_BOUND ( 'NONE', #64, .T. ) ;
#439 = ORIENTED_EDGE ( 'NONE', *, *, #117, .F. ) ;
#440 = ADVANCED_FACE ( 'NONE', ( #647 ), #184, .F. ) ;
#441 = DIRECTION ( 'NONE',  ( -1.000000000000000000, -0.000000000000000000, -0.000000000000000000 ) ) ;
#442 = ORIENTED_EDGE ( 'NONE', *, *, #411, .T. ) ;
#443 = CARTESIAN_POINT ( 'NONE',  ( 1.395000000000000018, 0.1000000000000000056, 2.500000000000000444 ) ) ;
#444 = ORIENTED_EDGE ( 'NONE', *, *, #562, .T. ) ;
#445 = EDGE_CURVE ( 'NONE', #11, #366, #404, .T. ) ;
#446 = ORIENTED_EDGE ( 'NONE', *, *, #902, .T. ) ;
#447 = CARTESIAN_POINT ( 'NONE',  ( -2.704999999999999627, 6.049999999999999822, 2.000000000000002665 ) ) ;
#448 = ORIENTED_EDGE ( 'NONE', *, *, #282, .T. ) ;
#449 = PLANE ( 'NONE',  #47 ) ;
#450 = AXIS2_PLACEMENT_3D ( 'NONE', #113, #31, #410 ) ;
#451 = AXIS2_PLACEMENT_3D ( 'NONE', #747, #57, #433 ) ;
#452 = DIRECTION ( 'NONE',  ( -1.000000000000000000, -0.000000000000000000, -0.000000000000000000 ) ) ;
#453 = EDGE_CURVE ( 'NONE', #334, #281, #714, .T. ) ;
#454 = ORIENTED_EDGE ( 'NONE', *, *, #268, .F. ) ;
#455 = ORIENTED_EDGE ( 'NONE', *, *, #298, .T. ) ;
#456 = DIRECTION ( 'NONE',  ( 0.000000000000000000, -0.000000000000000000, -1.000000000000000000 ) ) ;
#457 = CARTESIAN_POINT ( 'NONE',  ( -1.395000000000000018, 0.1000000000000000056, -2.499999999999999556 ) ) ;
#458 = ADVANCED_FACE ( 'NONE', ( #875 ), #345, .F. ) ;
#459 = FILL_AREA_STYLE_COLOUR ( '', #163 ) ;
#460 = VERTEX_POINT ( 'NONE', #944 ) ;
#461 = DIRECTION ( 'NONE',  ( -0.000000000000000000, 1.000000000000000000, -0.000000000000000000 ) ) ;
#462 = VERTEX_POINT ( 'NONE', #424 ) ;
#463 = CARTESIAN_POINT ( 'NONE',  ( -2.454999999999999183, 6.099999999999999645, 2.000000000000002665 ) ) ;
#464 = VERTEX_POINT ( 'NONE', #723 ) ;
#465 = PLANE ( 'NONE',  #510 ) ;
#466 = AXIS2_PLACEMENT_3D ( 'NONE', #352, #339, #580 ) ;
#467 = VECTOR ( 'NONE', #910, 1000.000000000000000 ) ;
#468 = FACE_OUTER_BOUND ( 'NONE', #560, .T. ) ;
#469 = LINE ( 'NONE', #774, #797 ) ;
#470 = EDGE_CURVE ( 'NONE', #252, #909, #41, .T. ) ;
#471 = DIRECTION ( 'NONE',  ( 0.000000000000000000, -1.000000000000000000, 0.000000000000000000 ) ) ;
#472 = CARTESIAN_POINT ( 'NONE',  ( -3.030000000000000249, 6.099999999999999645, -3.280000000000000249 ) ) ;
#473 = LINE ( 'NONE', #251, #594 ) ;
#474 = ORIENTED_EDGE ( 'NONE', *, *, #166, .F. ) ;
#475 = CARTESIAN_POINT ( 'NONE',  ( 0.000000000000000000, 0.1000000000000000056, 0.000000000000000000 ) ) ;
#476 = DIRECTION ( 'NONE',  ( -0.000000000000000000, -1.000000000000000000, -0.000000000000000000 ) ) ;
#477 = CARTESIAN_POINT ( 'NONE',  ( -2.704999999999999627, 6.049999999999999822, -1.999999999999997113 ) ) ;
#478 = EDGE_LOOP ( 'NONE', ( #535, #947, #917, #192 ) ) ;
#479 = VECTOR ( 'NONE', #958, 1000.000000000000000 ) ;
#480 = ORIENTED_EDGE ( 'NONE', *, *, #722, .T. ) ;
#481 = PRESENTATION_LAYER_ASSIGNMENT (  '', '', ( #68 ) ) ;
#482 = VECTOR ( 'NONE', #509, 1000.000000000000000 ) ;
#483 = EDGE_CURVE ( 'NONE', #105, #460, #187, .T. ) ;
#484 = LINE ( 'NONE', #720, #818 ) ;
#485 = VERTEX_POINT ( 'NONE', #788 ) ;
#486 = EDGE_CURVE ( 'NONE', #389, #382, #871, .T. ) ;
#487 = DIRECTION ( 'NONE',  ( -0.000000000000000000, -1.000000000000000000, -0.000000000000000000 ) ) ;
#488 = ORIENTED_EDGE ( 'NONE', *, *, #834, .F. ) ;
#489 = CARTESIAN_POINT ( 'NONE',  ( 3.180000000000000160, 6.099999999999999645, 3.129999999999999449 ) ) ;
#490 = DIRECTION ( 'NONE',  ( -0.000000000000000000, -0.000000000000000000, 1.000000000000000000 ) ) ;
#491 = EDGE_LOOP ( 'NONE', ( #78, #601, #240, #318 ) ) ;
#492 = LINE ( 'NONE', #277, #853 ) ;
#493 = CARTESIAN_POINT ( 'NONE',  ( -2.644999999999999574, 0.1000000000000000056, -2.499999999999999556 ) ) ;
#494 =( GEOMETRIC_REPRESENTATION_CONTEXT ( 3 ) GLOBAL_UNCERTAINTY_ASSIGNED_CONTEXT ( ( #711 ) ) GLOBAL_UNIT_ASSIGNED_CONTEXT ( ( #851, #776, #10 ) ) REPRESENTATION_CONTEXT ( 'NONE', 'WORKASPACE' ) );
#495 = CARTESIAN_POINT ( 'NONE',  ( -2.644999999999999574, 0.1000000000000000056, 2.500000000000000444 ) ) ;
#496 = ORIENTED_EDGE ( 'NONE', *, *, #527, .F. ) ;
#497 = PRESENTATION_LAYER_ASSIGNMENT (  '', '', ( #377 ) ) ;
#498 = EDGE_CURVE ( 'NONE', #52, #909, #265, .T. ) ;
#499 = PLANE ( 'NONE',  #673 ) ;
#500 = DIRECTION ( 'NONE',  ( -1.000000000000000000, 0.000000000000000000, -0.000000000000000000 ) ) ;
#501 = DIRECTION ( 'NONE',  ( 0.000000000000000000, -1.000000000000000000, 0.000000000000000000 ) ) ;
#502 = ORIENTED_EDGE ( 'NONE', *, *, #338, .T. ) ;
#503 =( NAMED_UNIT ( * ) PLANE_ANGLE_UNIT ( ) SI_UNIT ( $, .RADIAN. ) );
#504 = PLANE ( 'NONE',  #341 ) ;
#505 = CARTESIAN_POINT ( 'NONE',  ( -1.395000000000000018, 0.1000000000000000056, 2.500000000000000444 ) ) ;
#506 = ORIENTED_EDGE ( 'NONE', *, *, #512, .T. ) ;
#507 = CARTESIAN_POINT ( 'NONE',  ( -2.644999999999999574, 0.1000000000000000056, 2.500000000000000444 ) ) ;
#508 = FILL_AREA_STYLE ('',( #873 ) ) ;
#509 = DIRECTION ( 'NONE',  ( -0.000000000000000000, 1.000000000000000000, -0.000000000000000000 ) ) ;
#510 = AXIS2_PLACEMENT_3D ( 'NONE', #617, #79, #87 ) ;
#511 = VERTEX_POINT ( 'NONE', #272 ) ;
#512 = EDGE_CURVE ( 'NONE', #610, #389, #26, .T. ) ;
#513 = CARTESIAN_POINT ( 'NONE',  ( -3.179999999999999716, 6.099999999999999645, 3.129999999999999449 ) ) ;
#514 = ORIENTED_EDGE ( 'NONE', *, *, #587, .T. ) ;
#515 = CIRCLE ( 'NONE', #614, 0.1499999999999995226 ) ;
#516 = CARTESIAN_POINT ( 'NONE',  ( -1.395000000000000018, 0.1000000000000000056, -2.499999999999999556 ) ) ;
#517 = DIRECTION ( 'NONE',  ( -1.000000000000000000, 0.000000000000000000, -0.000000000000000000 ) ) ;
#518 = VERTEX_POINT ( 'NONE', #256 ) ;
#519 = CARTESIAN_POINT ( 'NONE',  ( -2.644999999999999574, 0.1000000000000000056, -2.499999999999999556 ) ) ;
#520 = EDGE_LOOP ( 'NONE', ( #350, #590, #108, #616 ) ) ;
#521 = CARTESIAN_POINT ( 'NONE',  ( 0.000000000000000000, 0.1000000000000000056, 0.000000000000000000 ) ) ;
#522 = EDGE_LOOP ( 'NONE', ( #694, #961, #872, #7 ) ) ;
#523 = DIRECTION ( 'NONE',  ( 0.000000000000000000, 0.000000000000000000, -1.000000000000000000 ) ) ;
#524 = ORIENTED_EDGE ( 'NONE', *, *, #316, .T. ) ;
#525 = CARTESIAN_POINT ( 'NONE',  ( -2.644999999999999574, 0.000000000000000000, 2.500000000000000444 ) ) ;
#526 =( NAMED_UNIT ( * ) SI_UNIT ( $, .STERADIAN. ) SOLID_ANGLE_UNIT ( ) );
#527 = EDGE_CURVE ( 'NONE', #17, #300, #940, .T. ) ;
#528 = LINE ( 'NONE', #224, #5 ) ;
#529 = ORIENTED_EDGE ( 'NONE', *, *, #636, .T. ) ;
#530 = VECTOR ( 'NONE', #221, 1000.000000000000000 ) ;
#531 = LINE ( 'NONE', #213, #734 ) ;
#532 = ADVANCED_FACE ( 'NONE', ( #101 ), #104, .F. ) ;
#533 = VERTEX_POINT ( 'NONE', #565 ) ;
#534 =( NAMED_UNIT ( * ) SI_UNIT ( $, .STERADIAN. ) SOLID_ANGLE_UNIT ( ) );
#535 = ORIENTED_EDGE ( 'NONE', *, *, #498, .T. ) ;
#536 = CARTESIAN_POINT ( 'NONE',  ( -2.704999999999999627, 6.049999999999999822, 2.000000000000002665 ) ) ;
#537 = CARTESIAN_POINT ( 'NONE',  ( -3.030000000000000249, 21.33691413990522179, 3.279999999999999361 ) ) ;
#538 = VERTEX_POINT ( 'NONE', #862 ) ;
#539 = EDGE_CURVE ( 'NONE', #485, #144, #709, .T. ) ;
#540 = CARTESIAN_POINT ( 'NONE',  ( -3.030000000000000249, 6.099999999999999645, -3.280000000000000249 ) ) ;
#541 = DIRECTION ( 'NONE',  ( -1.000000000000000000, 0.000000000000000000, -7.156449983402669930E-17 ) ) ;
#542 = ORIENTED_EDGE ( 'NONE', *, *, #618, .T. ) ;
#543 = ADVANCED_FACE ( 'NONE', ( #414 ), #342, .F. ) ;
#544 = FACE_OUTER_BOUND ( 'NONE', #957, .T. ) ;
#545 = CIRCLE ( 'NONE', #466, 0.1499999999999995226 ) ;
#546 = AXIS2_PLACEMENT_3D ( 'NONE', #193, #791, #118 ) ;
#547 = VECTOR ( 'NONE', #353, 1000.000000000000000 ) ;
#548 = DIRECTION ( 'NONE',  ( -0.000000000000000000, -1.000000000000000000, -0.000000000000000000 ) ) ;
#549 = SURFACE_STYLE_FILL_AREA ( #6 ) ;
#550 = DIRECTION ( 'NONE',  ( 0.000000000000000000, 0.000000000000000000, 1.000000000000000000 ) ) ;
#551 = EDGE_CURVE ( 'NONE', #137, #832, #604, .T. ) ;
#552 = DIRECTION ( 'NONE',  ( 1.000000000000000000, 0.000000000000000000, -0.000000000000000000 ) ) ;
#553 = DIRECTION ( 'NONE',  ( -0.000000000000000000, -1.000000000000000000, -0.000000000000000000 ) ) ;
#554 = UNCERTAINTY_MEASURE_WITH_UNIT (LENGTH_MEASURE( 1.000000000000000082E-05 ), #55, 'distance_accuracy_value', 'NONE');
#555 = EDGE_CURVE ( 'NONE', #832, #789, #362, .T. ) ;
#556 = DIRECTION ( 'NONE',  ( 0.000000000000000000, 1.000000000000000000, 0.000000000000000000 ) ) ;
#557 = DIRECTION ( 'NONE',  ( -0.000000000000000000, 1.000000000000000000, -0.000000000000000000 ) ) ;
#558 = ORIENTED_EDGE ( 'NONE', *, *, #551, .F. ) ;
#559 = AXIS2_PLACEMENT_3D ( 'NONE', #521, #142, #375 ) ;
#560 = EDGE_LOOP ( 'NONE', ( #488, #950, #248, #922 ) ) ;
#561 = AXIS2_PLACEMENT_3D ( 'NONE', #619, #843, #552 ) ;
#562 = EDGE_CURVE ( 'NONE', #742, #596, #379, .T. ) ;
#563 =( GEOMETRIC_REPRESENTATION_CONTEXT ( 3 ) GLOBAL_UNCERTAINTY_ASSIGNED_CONTEXT ( ( #358 ) ) GLOBAL_UNIT_ASSIGNED_CONTEXT ( ( #177, #939, #630 ) ) REPRESENTATION_CONTEXT ( 'NONE', 'WORKASPACE' ) );
#564 = DIRECTION ( 'NONE',  ( -0.000000000000000000, -0.000000000000000000, 1.000000000000000000 ) ) ;
#565 = CARTESIAN_POINT ( 'NONE',  ( -3.179999999999999716, 0.1000000000000000056, -3.130000000000000338 ) ) ;
#566 = EDGE_LOOP ( 'NONE', ( #674, #199, #866, #394 ) ) ;
#567 = DIRECTION ( 'NONE',  ( -0.000000000000000000, -1.000000000000000000, -0.000000000000000000 ) ) ;
#568 = EDGE_LOOP ( 'NONE', ( #727, #684, #609, #655 ) ) ;
#569 = DIRECTION ( 'NONE',  ( -1.000000000000000000, -0.000000000000000000, -0.000000000000000000 ) ) ;
#570 = ORIENTED_EDGE ( 'NONE', *, *, #40, .F. ) ;
#571 = LINE ( 'NONE', #537, #715 ) ;
#572 = DIRECTION ( 'NONE',  ( -0.000000000000000000, -1.000000000000000000, -0.000000000000000000 ) ) ;
#573 = EDGE_CURVE ( 'NONE', #924, #518, #355, .T. ) ;
#574 = ORIENTED_EDGE ( 'NONE', *, *, #398, .T. ) ;
#575 = DIRECTION ( 'NONE',  ( 0.000000000000000000, 0.000000000000000000, 1.000000000000000000 ) ) ;
#576 = AXIS2_PLACEMENT_3D ( 'NONE', #969, #295, #599 ) ;
#577 = DIRECTION ( 'NONE',  ( -0.000000000000000000, -0.000000000000000000, 1.000000000000000000 ) ) ;
#578 = ORIENTED_EDGE ( 'NONE', *, *, #88, .F. ) ;
#579 =( GEOMETRIC_REPRESENTATION_CONTEXT ( 3 ) GLOBAL_UNCERTAINTY_ASSIGNED_CONTEXT ( ( #266 ) ) GLOBAL_UNIT_ASSIGNED_CONTEXT ( ( #699, #399, #413 ) ) REPRESENTATION_CONTEXT ( 'NONE', 'WORKASPACE' ) );
#580 = DIRECTION ( 'NONE',  ( 0.000000000000000000, 0.000000000000000000, -1.000000000000000000 ) ) ;
#581 = FACE_BOUND ( 'NONE', #520, .T. ) ;
#582 = CARTESIAN_POINT ( 'NONE',  ( 3.030000000000000249, 0.1000000000000000056, -3.279999999999999805 ) ) ;
#583 = VERTEX_POINT ( 'NONE', #582 ) ;
#584 = CARTESIAN_POINT ( 'NONE',  ( -2.454999999999999183, 6.099999999999999645, 2.000000000000002665 ) ) ;
#585 = PRESENTATION_STYLE_ASSIGNMENT (( #651 ) ) ;
#586 = LINE ( 'NONE', #890, #482 ) ;
#587 = EDGE_CURVE ( 'NONE', #610, #460, #528, .T. ) ;
#588 = ORIENTED_EDGE ( 'NONE', *, *, #539, .F. ) ;
#589 = CYLINDRICAL_SURFACE ( 'NONE', #770, 0.1499999999999995226 ) ;
#590 = ORIENTED_EDGE ( 'NONE', *, *, #964, .F. ) ;
#591 = CARTESIAN_POINT ( 'NONE',  ( -2.704999999999999627, 6.049999999999999822, -1.999999999999997113 ) ) ;
#592 = CARTESIAN_POINT ( 'NONE',  ( -2.454999999999999183, 6.049999999999999822, -1.999999999999997113 ) ) ;
#593 = EDGE_CURVE ( 'NONE', #966, #137, #820, .T. ) ;
#594 = VECTOR ( 'NONE', #553, 1000.000000000000000 ) ;
#595 = CARTESIAN_POINT ( 'NONE',  ( -3.179999999999999716, 6.099999999999999645, 3.129999999999999449 ) ) ;
#596 = VERTEX_POINT ( 'NONE', #513 ) ;
#597 = VECTOR ( 'NONE', #388, 1000.000000000000000 ) ;
#598 = DIRECTION ( 'NONE',  ( 0.000000000000000000, 0.000000000000000000, -1.000000000000000000 ) ) ;
#599 = DIRECTION ( 'NONE',  ( 1.000000000000000000, 0.000000000000000000, 7.156449983402669930E-17 ) ) ;
#600 = LINE ( 'NONE', #827, #801 ) ;
#601 = ORIENTED_EDGE ( 'NONE', *, *, #100, .F. ) ;
#602 = DIRECTION ( 'NONE',  ( 1.000000000000000000, 0.000000000000000000, 0.000000000000000000 ) ) ;
#603 = ORIENTED_EDGE ( 'NONE', *, *, #28, .T. ) ;
#604 = LINE ( 'NONE', #975, #953 ) ;
#605 = ORIENTED_EDGE ( 'NONE', *, *, #623, .F. ) ;
#606 = DIRECTION ( 'NONE',  ( 0.000000000000000000, 0.000000000000000000, -1.000000000000000000 ) ) ;
#607 = EDGE_CURVE ( 'NONE', #886, #304, #600, .T. ) ;
#608 = DIRECTION ( 'NONE',  ( -0.000000000000000000, -1.000000000000000000, -0.000000000000000000 ) ) ;
#609 = ORIENTED_EDGE ( 'NONE', *, *, #859, .F. ) ;
#610 = VERTEX_POINT ( 'NONE', #138 ) ;
#611 = MECHANICAL_DESIGN_GEOMETRIC_PRESENTATION_REPRESENTATION (  '', ( #323 ), #432 ) ;
#612 = CARTESIAN_POINT ( 'NONE',  ( 1.395000000000000018, 0.000000000000000000, 2.500000000000000444 ) ) ;
#613 = VECTOR ( 'NONE', #577, 1000.000000000000000 ) ;
#614 = AXIS2_PLACEMENT_3D ( 'NONE', #49, #361, #575 ) ;
#615 = FILL_AREA_STYLE ('',( #459 ) ) ;
#616 = ORIENTED_EDGE ( 'NONE', *, *, #121, .F. ) ;
#617 = CARTESIAN_POINT ( 'NONE',  ( -3.030000000000000249, 21.33691413990522179, 3.279999999999999361 ) ) ;
#618 = EDGE_CURVE ( 'NONE', #460, #382, #303, .T. ) ;
#619 = CARTESIAN_POINT ( 'NONE',  ( -2.704999999999999627, 6.049999999999999822, 2.000000000000002665 ) ) ;
#620 = EDGE_LOOP ( 'NONE', ( #669, #225, #792, #258 ) ) ;
#621 = DIRECTION ( 'NONE',  ( 1.000000000000000000, 0.000000000000000000, 0.000000000000000000 ) ) ;
#622 = EDGE_LOOP ( 'NONE', ( #764, #185, #343, #474 ) ) ;
#623 = EDGE_CURVE ( 'NONE', #518, #144, #365, .T. ) ;
#624 = CARTESIAN_POINT ( 'NONE',  ( -2.644999999999999574, 0.1000000000000000056, 2.500000000000000444 ) ) ;
#625 = DIRECTION ( 'NONE',  ( 1.000000000000000000, 0.000000000000000000, 0.000000000000000000 ) ) ;
#626 = VECTOR ( 'NONE', #854, 1000.000000000000000 ) ;
#627 = MECHANICAL_DESIGN_GEOMETRIC_PRESENTATION_REPRESENTATION (  '', ( #68 ), #179 ) ;
#628 = ORIENTED_EDGE ( 'NONE', *, *, #453, .F. ) ;
#629 = MECHANICAL_DESIGN_GEOMETRIC_PRESENTATION_REPRESENTATION (  '', ( #377 ), #579 ) ;
#630 =( NAMED_UNIT ( * ) SI_UNIT ( $, .STERADIAN. ) SOLID_ANGLE_UNIT ( ) );
#631 = SURFACE_SIDE_STYLE ('',( #759 ) ) ;
#632 = CARTESIAN_POINT ( 'NONE',  ( -3.030000000000000249, 6.099999999999999645, 3.279999999999999361 ) ) ;
#633 = DIRECTION ( 'NONE',  ( 1.000000000000000000, 0.000000000000000000, 0.000000000000000000 ) ) ;
#634 = CARTESIAN_POINT ( 'NONE',  ( 3.030000000000000693, 0.1000000000000000056, 3.129999999999999449 ) ) ;
#635 = LINE ( 'NONE', #35, #312 ) ;
#636 = EDGE_CURVE ( 'NONE', #464, #300, #130, .T. ) ;
#637 = EDGE_LOOP ( 'NONE', ( #719, #356, #664, #638 ) ) ;
#638 = ORIENTED_EDGE ( 'NONE', *, *, #716, .T. ) ;
#639 = PRESENTATION_STYLE_ASSIGNMENT (( #708 ) ) ;
#640 = CARTESIAN_POINT ( 'NONE',  ( 1.395000000000000018, 0.1000000000000000056, 2.500000000000000444 ) ) ;
#641 = VECTOR ( 'NONE', #167, 1000.000000000000000 ) ;
#642 = VECTOR ( 'NONE', #461, 1000.000000000000000 ) ;
#643 = CARTESIAN_POINT ( 'NONE',  ( -2.704999999999999627, 6.099999999999999645, -1.999999999999997113 ) ) ;
#644 = VECTOR ( 'NONE', #741, 1000.000000000000000 ) ;
#645 = FILL_AREA_STYLE_COLOUR ( '', #802 ) ;
#646 = EDGE_LOOP ( 'NONE', ( #778, #605, #524, #203 ) ) ;
#647 = FACE_OUTER_BOUND ( 'NONE', #363, .T. ) ;
#648 = CARTESIAN_POINT ( 'NONE',  ( 2.644999999999999574, 0.000000000000000000, 2.500000000000000444 ) ) ;
#649 = ADVANCED_FACE ( 'NONE', ( #285 ), #956, .F. ) ;
#650 = DIRECTION ( 'NONE',  ( 0.000000000000000000, 0.000000000000000000, -1.000000000000000000 ) ) ;
#651 = SURFACE_STYLE_USAGE ( .BOTH. , #815 ) ;
#652 = DIRECTION ( 'NONE',  ( 0.000000000000000000, 1.000000000000000000, 0.000000000000000000 ) ) ;
#653 = ADVANCED_FACE ( 'NONE', ( #438 ), #903, .F. ) ;
#654 = DIRECTION ( 'NONE',  ( -0.000000000000000000, -1.000000000000000000, -0.000000000000000000 ) ) ;
#655 = ORIENTED_EDGE ( 'NONE', *, *, #796, .T. ) ;
#656 = DIRECTION ( 'NONE',  ( 0.000000000000000000, -1.000000000000000000, 0.000000000000000000 ) ) ;
#657 = CARTESIAN_POINT ( 'NONE',  ( -2.704999999999999627, 6.099999999999999645, 2.000000000000002665 ) ) ;
#658 = VECTOR ( 'NONE', #675, 1000.000000000000000 ) ;
#659 = DIRECTION ( 'NONE',  ( -1.000000000000000000, 0.000000000000000000, -0.000000000000000000 ) ) ;
#660 = VERTEX_POINT ( 'NONE', #729 ) ;
#661 = ADVANCED_FACE ( 'NONE', ( #143 ), #737, .F. ) ;
#662 = DIRECTION ( 'NONE',  ( 0.000000000000000000, 0.000000000000000000, -1.000000000000000000 ) ) ;
#663 = DIRECTION ( 'NONE',  ( -0.000000000000000000, -1.000000000000000000, -0.000000000000000000 ) ) ;
#664 = ORIENTED_EDGE ( 'NONE', *, *, #28, .F. ) ;
#665 = FACE_OUTER_BOUND ( 'NONE', #637, .T. ) ;
#666 = ADVANCED_FACE ( 'NONE', ( #217 ), #299, .F. ) ;
#667 = PLANE ( 'NONE',  #344 ) ;
#668 = DIRECTION ( 'NONE',  ( -0.000000000000000000, -1.000000000000000000, -0.000000000000000000 ) ) ;
#669 = ORIENTED_EDGE ( 'NONE', *, *, #562, .F. ) ;
#670 = CARTESIAN_POINT ( 'NONE',  ( -2.704999999999999627, 6.049999999999999822, 2.000000000000002665 ) ) ;
#671 = FACE_OUTER_BOUND ( 'NONE', #622, .T. ) ;
#672 = CARTESIAN_POINT ( 'NONE',  ( -3.030000000000000249, 6.099999999999999645, -3.130000000000000338 ) ) ;
#673 = AXIS2_PLACEMENT_3D ( 'NONE', #33, #656, #717 ) ;
#674 = ORIENTED_EDGE ( 'NONE', *, *, #593, .T. ) ;
#675 = DIRECTION ( 'NONE',  ( 0.000000000000000000, 0.000000000000000000, -1.000000000000000000 ) ) ;
#676 = EDGE_LOOP ( 'NONE', ( #27, #409, #454, #446 ) ) ;
#677 = VECTOR ( 'NONE', #325, 1000.000000000000000 ) ;
#678 = DIRECTION ( 'NONE',  ( 1.000000000000000000, 0.000000000000000000, 0.000000000000000000 ) ) ;
#679 = LINE ( 'NONE', #302, #768 ) ;
#680 = ADVANCED_FACE ( 'NONE', ( #51 ), #589, .T. ) ;
#681 = CARTESIAN_POINT ( 'NONE',  ( -1.395000000000000018, 0.1000000000000000056, 2.500000000000000444 ) ) ;
#682 = ORIENTED_EDGE ( 'NONE', *, *, #453, .T. ) ;
#683 = DIRECTION ( 'NONE',  ( 0.000000000000000000, -0.000000000000000000, -1.000000000000000000 ) ) ;
#684 = ORIENTED_EDGE ( 'NONE', *, *, #902, .F. ) ;
#685 = DIRECTION ( 'NONE',  ( 0.000000000000000000, 0.000000000000000000, -1.000000000000000000 ) ) ;
#686 = ORIENTED_EDGE ( 'NONE', *, *, #398, .F. ) ;
#687 = CLOSED_SHELL ( 'NONE', ( #666, #326, #653, #543, #159, #867 ) ) ;
#688 = EDGE_LOOP ( 'NONE', ( #380, #786, #72, #628 ) ) ;
#689 = COLOUR_RGB ( '',0.2509803921568627416, 0.2509803921568627416, 0.2509803921568627416 ) ;
#690 = CARTESIAN_POINT ( 'NONE',  ( -2.644999999999999574, 0.000000000000000000, -2.499999999999999556 ) ) ;
#691 = VECTOR ( 'NONE', #740, 1000.000000000000000 ) ;
#692 = EDGE_CURVE ( 'NONE', #832, #281, #289, .T. ) ;
#693 = DIRECTION ( 'NONE',  ( 0.000000000000000000, 0.000000000000000000, -1.000000000000000000 ) ) ;
#694 = ORIENTED_EDGE ( 'NONE', *, *, #793, .T. ) ;
#695 = LINE ( 'NONE', #705, #80 ) ;
#696 = FACE_OUTER_BOUND ( 'NONE', #566, .T. ) ;
#697 = DIRECTION ( 'NONE',  ( -0.000000000000000000, -1.000000000000000000, -0.000000000000000000 ) ) ;
#698 = CARTESIAN_POINT ( 'NONE',  ( -2.704999999999999627, 6.049999999999999822, -1.999999999999997113 ) ) ;
#699 =( LENGTH_UNIT ( ) NAMED_UNIT ( * ) SI_UNIT ( .MILLI., .METRE. ) );
#700 = LINE ( 'NONE', #19, #677 ) ;
#701 = LINE ( 'NONE', #327, #392 ) ;
#702 = VECTOR ( 'NONE', #888, 1000.000000000000000 ) ;
#703 = FILL_AREA_STYLE ('',( #645 ) ) ;
#704 = EDGE_CURVE ( 'NONE', #533, #11, #847, .T. ) ;
#705 = CARTESIAN_POINT ( 'NONE',  ( -2.704999999999999627, 6.049999999999999822, 2.000000000000002665 ) ) ;
#706 = ORIENTED_EDGE ( 'NONE', *, *, #539, .T. ) ;
#707 = ORIENTED_EDGE ( 'NONE', *, *, #943, .T. ) ;
#708 = SURFACE_STYLE_USAGE ( .BOTH. , #932 ) ;
#709 = LINE ( 'NONE', #335, #48 ) ;
#710 = ORIENTED_EDGE ( 'NONE', *, *, #692, .F. ) ;
#711 = UNCERTAINTY_MEASURE_WITH_UNIT (LENGTH_MEASURE( 1.000000000000000082E-05 ), #851, 'distance_accuracy_value', 'NONE');
#712 = SURFACE_SIDE_STYLE ('',( #127 ) ) ;
#713 = EDGE_LOOP ( 'NONE', ( #402, #767, #71, #804 ) ) ;
#714 = LINE ( 'NONE', #107, #785 ) ;
#715 = VECTOR ( 'NONE', #608, 1000.000000000000000 ) ;
#716 = EDGE_CURVE ( 'NONE', #155, #237, #700, .T. ) ;
#717 = DIRECTION ( 'NONE',  ( 0.000000000000000000, -0.000000000000000000, -1.000000000000000000 ) ) ;
#718 = PRESENTATION_LAYER_ASSIGNMENT (  '', '', ( #374 ) ) ;
#719 = ORIENTED_EDGE ( 'NONE', *, *, #750, .T. ) ;
#720 = CARTESIAN_POINT ( 'NONE',  ( 3.180000000000000604, 21.33691413990522179, 3.129999999999999449 ) ) ;
#721 = PLANE ( 'NONE',  #417 ) ;
#722 = EDGE_CURVE ( 'NONE', #462, #331, #86, .T. ) ;
#723 = CARTESIAN_POINT ( 'NONE',  ( 3.180000000000000604, 0.1000000000000000056, 3.129999999999999449 ) ) ;
#724 = EDGE_LOOP ( 'NONE', ( #892, #442, #706, #795 ) ) ;
#725 = LINE ( 'NONE', #186, #479 ) ;
#726 = CARTESIAN_POINT ( 'NONE',  ( 2.644999999999999574, 0.1000000000000000056, 2.500000000000000444 ) ) ;
#727 = ORIENTED_EDGE ( 'NONE', *, *, #908, .T. ) ;
#728 = ADVANCED_FACE ( 'NONE', ( #916 ), #169, .T. ) ;
#729 = CARTESIAN_POINT ( 'NONE',  ( 3.030000000000000693, 6.099999999999999645, 3.279999999999999805 ) ) ;
#730 = ORIENTED_EDGE ( 'NONE', *, *, #618, .F. ) ;
#731 = CARTESIAN_POINT ( 'NONE',  ( 0.000000000000000000, 0.000000000000000000, 0.000000000000000000 ) ) ;
#732 = CARTESIAN_POINT ( 'NONE',  ( 2.644999999999999574, 0.000000000000000000, -2.499999999999999556 ) ) ;
#733 = DIRECTION ( 'NONE',  ( 0.000000000000000000, 0.000000000000000000, 1.000000000000000000 ) ) ;
#734 = VECTOR ( 'NONE', #756, 1000.000000000000000 ) ;
#735 = AXIS2_PLACEMENT_3D ( 'NONE', #773, #697, #321 ) ;
#736 = AXIS2_PLACEMENT_3D ( 'NONE', #672, #556, #787 ) ;
#737 = PLANE ( 'NONE',  #880 ) ;
#738 = ORIENTED_EDGE ( 'NONE', *, *, #486, .F. ) ;
#739 = FACE_OUTER_BOUND ( 'NONE', #522, .T. ) ;
#740 = DIRECTION ( 'NONE',  ( -0.000000000000000000, -1.000000000000000000, -0.000000000000000000 ) ) ;
#741 = DIRECTION ( 'NONE',  ( -0.000000000000000000, -0.000000000000000000, 1.000000000000000000 ) ) ;
#742 = VERTEX_POINT ( 'NONE', #89 ) ;
#743 = CARTESIAN_POINT ( 'NONE',  ( 3.180000000000000604, 6.099999999999999645, 3.129999999999999449 ) ) ;
#744 = CARTESIAN_POINT ( 'NONE',  ( -2.704999999999999627, 6.049999999999999822, -1.999999999999997113 ) ) ;
#745 = PRODUCT_RELATED_PRODUCT_CATEGORY ( 'part', '', ( #974 ) ) ;
#746 = ORIENTED_EDGE ( 'NONE', *, *, #607, .F. ) ;
#747 = CARTESIAN_POINT ( 'NONE',  ( 2.644999999999999574, 0.1000000000000000056, 2.500000000000000444 ) ) ;
#748 = ORIENTED_EDGE ( 'NONE', *, *, #807, .F. ) ;
#749 = FACE_OUTER_BOUND ( 'NONE', #904, .T. ) ;
#750 = EDGE_CURVE ( 'NONE', #237, #511, #157, .T. ) ;
#751 = AXIS2_PLACEMENT_3D ( 'NONE', #249, #264, #633 ) ;
#752 = AXIS2_PLACEMENT_3D ( 'NONE', #278, #376, #889 ) ;
#753 = DIRECTION ( 'NONE',  ( 0.000000000000000000, 0.000000000000000000, -1.000000000000000000 ) ) ;
#754 = ORIENTED_EDGE ( 'NONE', *, *, #623, .T. ) ;
#755 = FACE_OUTER_BOUND ( 'NONE', #848, .T. ) ;
#756 = DIRECTION ( 'NONE',  ( -0.000000000000000000, -1.000000000000000000, -0.000000000000000000 ) ) ;
#757 = VERTEX_POINT ( 'NONE', #154 ) ;
#758 = EDGE_LOOP ( 'NONE', ( #821, #852, #762, #175 ) ) ;
#759 = SURFACE_STYLE_FILL_AREA ( #615 ) ;
#760 = ORIENTED_EDGE ( 'NONE', *, *, #95, .F. ) ;
#761 = MANIFOLD_SOLID_BREP ( 'Boss-Extrude1[1]', #876 ) ;
#762 = ORIENTED_EDGE ( 'NONE', *, *, #298, .F. ) ;
#763 = FILL_AREA_STYLE_COLOUR ( '', #357 ) ;
#764 = ORIENTED_EDGE ( 'NONE', *, *, #722, .F. ) ;
#765 = DIRECTION ( 'NONE',  ( -1.000000000000000000, 0.000000000000000000, 0.000000000000000000 ) ) ;
#766 = ORIENTED_EDGE ( 'NONE', *, *, #908, .F. ) ;
#767 = ORIENTED_EDGE ( 'NONE', *, *, #945, .F. ) ;
#768 = VECTOR ( 'NONE', #36, 1000.000000000000000 ) ;
#769 = LINE ( 'NONE', #860, #243 ) ;
#770 = AXIS2_PLACEMENT_3D ( 'NONE', #893, #668, #965 ) ;
#771 = ORIENTED_EDGE ( 'NONE', *, *, #486, .T. ) ;
#772 = MANIFOLD_SOLID_BREP ( 'Boss-Extrude3', #210 ) ;
#773 = CARTESIAN_POINT ( 'NONE',  ( 3.030000000000000693, 21.33691413990522179, 3.129999999999999449 ) ) ;
#774 = CARTESIAN_POINT ( 'NONE',  ( -3.030000000000000249, 0.1000000000000000056, 3.279999999999999361 ) ) ;
#775 = SURFACE_STYLE_FILL_AREA ( #703 ) ;
#776 =( NAMED_UNIT ( * ) PLANE_ANGLE_UNIT ( ) SI_UNIT ( $, .RADIAN. ) );
#777 = LINE ( 'NONE', #160, #109 ) ;
#778 = ORIENTED_EDGE ( 'NONE', *, *, #348, .F. ) ;
#779 = CARTESIAN_POINT ( 'NONE',  ( 3.180000000000000160, 6.099999999999999645, -3.130000000000000338 ) ) ;
#780 = ADVANCED_FACE ( 'NONE', ( #468 ), #307, .T. ) ;
#781 = LINE ( 'NONE', #44, #547 ) ;
#782 = CYLINDRICAL_SURFACE ( 'NONE', #817, 0.1499999999999995226 ) ;
#783 = ORIENTED_EDGE ( 'NONE', *, *, #846, .T. ) ;
#784 = COLOUR_RGB ( '',0.7921568627450980005, 0.8196078431372548767, 0.9333333333333333481 ) ;
#785 = VECTOR ( 'NONE', #269, 1000.000000000000000 ) ;
#786 = ORIENTED_EDGE ( 'NONE', *, *, #793, .F. ) ;
#787 = DIRECTION ( 'NONE',  ( 0.000000000000000000, 0.000000000000000000, 1.000000000000000000 ) ) ;
#788 = CARTESIAN_POINT ( 'NONE',  ( -2.704999999999999627, 6.099999999999999645, -1.999999999999997113 ) ) ;
#789 = VERTEX_POINT ( 'NONE', #624 ) ;
#790 = EDGE_LOOP ( 'NONE', ( #158, #920, #809, #317 ) ) ;
#791 = DIRECTION ( 'NONE',  ( 0.000000000000000000, 1.000000000000000000, -0.000000000000000000 ) ) ;
#792 = ORIENTED_EDGE ( 'NONE', *, *, #704, .T. ) ;
#793 = EDGE_CURVE ( 'NONE', #181, #188, #927, .T. ) ;
#794 = DIRECTION ( 'NONE',  ( 0.000000000000000000, -0.000000000000000000, -1.000000000000000000 ) ) ;
#795 = ORIENTED_EDGE ( 'NONE', *, *, #348, .T. ) ;
#796 = EDGE_CURVE ( 'NONE', #46, #98, #56, .T. ) ;
#797 = VECTOR ( 'NONE', #397, 1000.000000000000000 ) ;
#798 = CARTESIAN_POINT ( 'NONE',  ( 2.644999999999999574, 0.1000000000000000056, 2.500000000000000444 ) ) ;
#799 = FACE_OUTER_BOUND ( 'NONE', #42, .T. ) ;
#800 = CARTESIAN_POINT ( 'NONE',  ( 3.030000000000000693, 6.099999999999999645, 3.129999999999999449 ) ) ;
#801 = VECTOR ( 'NONE', #45, 1000.000000000000000 ) ;
#802 = COLOUR_RGB ( '',0.7921568627450980005, 0.8196078431372548767, 0.9333333333333333481 ) ;
#803 = DIRECTION ( 'NONE',  ( 1.000000000000000000, -0.000000000000000000, 0.000000000000000000 ) ) ;
#804 = ORIENTED_EDGE ( 'NONE', *, *, #692, .T. ) ;
#805 = LINE ( 'NONE', #190, #66 ) ;
#806 = CARTESIAN_POINT ( 'NONE',  ( 2.644999999999999574, 0.1000000000000000056, -2.499999999999999556 ) ) ;
#807 = EDGE_CURVE ( 'NONE', #894, #464, #260, .T. ) ;
#808 = DIRECTION ( 'NONE',  ( -0.000000000000000000, -0.000000000000000000, 1.000000000000000000 ) ) ;
#809 = ORIENTED_EDGE ( 'NONE', *, *, #445, .T. ) ;
#810 =( LENGTH_UNIT ( ) NAMED_UNIT ( * ) SI_UNIT ( .MILLI., .METRE. ) );
#811 = CARTESIAN_POINT ( 'NONE',  ( -2.704999999999999627, 6.049999999999999822, -1.999999999999997113 ) ) ;
#812 = ADVANCED_FACE ( 'NONE', ( #364 ), #874, .T. ) ;
#813 = DIRECTION ( 'NONE',  ( -1.000000000000000000, 0.000000000000000000, 0.000000000000000000 ) ) ;
#814 = ORIENTED_EDGE ( 'NONE', *, *, #919, .F. ) ;
#815 = SURFACE_SIDE_STYLE ('',( #200 ) ) ;
#816 = DIRECTION ( 'NONE',  ( 0.000000000000000000, 1.000000000000000000, 0.000000000000000000 ) ) ;
#817 = AXIS2_PLACEMENT_3D ( 'NONE', #85, #933, #247 ) ;
#818 = VECTOR ( 'NONE', #572, 1000.000000000000000 ) ;
#819 = ORIENTED_EDGE ( 'NONE', *, *, #427, .T. ) ;
#820 = LINE ( 'NONE', #681, #839 ) ;
#821 = ORIENTED_EDGE ( 'NONE', *, *, #121, .T. ) ;
#822 = ADVANCED_FACE ( 'NONE', ( #581, #270 ), #504, .T. ) ;
#823 = PLANE ( 'NONE',  #971 ) ;
#824 = LINE ( 'NONE', #897, #641 ) ;
#825 = DIRECTION ( 'NONE',  ( 0.000000000000000000, 0.000000000000000000, 1.000000000000000000 ) ) ;
#826 = EDGE_LOOP ( 'NONE', ( #308, #114, #150, #123 ) ) ;
#827 = CARTESIAN_POINT ( 'NONE',  ( -2.454999999999999183, 6.049999999999999822, -1.999999999999997113 ) ) ;
#828 = ORIENTED_EDGE ( 'NONE', *, *, #13, .T. ) ;
#829 = CARTESIAN_POINT ( 'NONE',  ( 0.000000000000000000, 6.049999999999999822, 0.000000000000000000 ) ) ;
#830 = EDGE_CURVE ( 'NONE', #924, #485, #191, .T. ) ;
#831 = DIRECTION ( 'NONE',  ( 1.000000000000000000, -0.000000000000000000, 0.000000000000000000 ) ) ;
#832 = VERTEX_POINT ( 'NONE', #493 ) ;
#833 = CARTESIAN_POINT ( 'NONE',  ( -1.395000000000000018, 0.000000000000000000, 2.500000000000000444 ) ) ;
#834 = EDGE_CURVE ( 'NONE', #660, #139, #246, .T. ) ;
#835 = VECTOR ( 'NONE', #678, 1000.000000000000000 ) ;
#836 = AXIS2_PLACEMENT_3D ( 'NONE', #198, #330, #38 ) ;
#837 = CARTESIAN_POINT ( 'NONE',  ( -2.704999999999999627, 6.049999999999999822, 2.000000000000002665 ) ) ;
#838 = VERTEX_POINT ( 'NONE', #423 ) ;
#839 = VECTOR ( 'NONE', #523, 1000.000000000000000 ) ;
#840 = PLANE ( 'NONE',  #576 ) ;
#841 = CARTESIAN_POINT ( 'NONE',  ( -2.704999999999999627, 6.049999999999999822, 2.000000000000002665 ) ) ;
#842 = ORIENTED_EDGE ( 'NONE', *, *, #411, .F. ) ;
#843 = DIRECTION ( 'NONE',  ( 0.000000000000000000, 0.000000000000000000, 1.000000000000000000 ) ) ;
#844 = ORIENTED_EDGE ( 'NONE', *, *, #483, .F. ) ;
#845 = LINE ( 'NONE', #477, #642 ) ;
#846 = EDGE_CURVE ( 'NONE', #17, #462, #515, .T. ) ;
#847 = LINE ( 'NONE', #15, #915 ) ;
#848 = EDGE_LOOP ( 'NONE', ( #603, #455, #425, #907 ) ) ;
#849 = CARTESIAN_POINT ( 'NONE',  ( 3.030000000000000249, 21.33691413990522179, -3.279999999999999805 ) ) ;
#850 = APPLICATION_PROTOCOL_DEFINITION ( 'draft international standard', 'automotive_design', 1998, #387 ) ;
#851 =( LENGTH_UNIT ( ) NAMED_UNIT ( * ) SI_UNIT ( .MILLI., .METRE. ) );
#852 = ORIENTED_EDGE ( 'NONE', *, *, #384, .F. ) ;
#853 = VECTOR ( 'NONE', #115, 1000.000000000000000 ) ;
#854 = DIRECTION ( 'NONE',  ( -0.000000000000000000, -1.000000000000000000, -0.000000000000000000 ) ) ;
#855 = VECTOR ( 'NONE', #371, 1000.000000000000000 ) ;
#856 = CARTESIAN_POINT ( 'NONE',  ( -1.395000000000000018, 0.1000000000000000056, 2.500000000000000444 ) ) ;
#857 = CARTESIAN_POINT ( 'NONE',  ( -2.644999999999999574, 0.000000000000000000, 2.500000000000000444 ) ) ;
#858 = DIRECTION ( 'NONE',  ( 0.000000000000000000, -0.000000000000000000, 1.000000000000000000 ) ) ;
#859 = EDGE_CURVE ( 'NONE', #46, #901, #25, .T. ) ;
#860 = CARTESIAN_POINT ( 'NONE',  ( -2.454999999999999183, 6.099999999999999645, 2.000000000000002665 ) ) ;
#861 = DIRECTION ( 'NONE',  ( 0.000000000000000000, -0.000000000000000000, -1.000000000000000000 ) ) ;
#862 = CARTESIAN_POINT ( 'NONE',  ( -3.030000000000000249, 0.1000000000000000056, -3.280000000000000249 ) ) ;
#863 = VECTOR ( 'NONE', #180, 1000.000000000000000 ) ;
#864 = DIRECTION ( 'NONE',  ( 0.000000000000000000, -1.000000000000000000, 0.000000000000000000 ) ) ;
#865 = VECTOR ( 'NONE', #548, 1000.000000000000000 ) ;
#866 = ORIENTED_EDGE ( 'NONE', *, *, #555, .T. ) ;
#867 = ADVANCED_FACE ( 'NONE', ( #959 ), #721, .F. ) ;
#868 = DIRECTION ( 'NONE',  ( -0.000000000000000000, -0.000000000000000000, 1.000000000000000000 ) ) ;
#869 = ORIENTED_EDGE ( 'NONE', *, *, #716, .F. ) ;
#870 = EDGE_CURVE ( 'NONE', #757, #511, #586, .T. ) ;
#871 = LINE ( 'NONE', #640, #110 ) ;
#872 = ORIENTED_EDGE ( 'NONE', *, *, #253, .F. ) ;
#873 = FILL_AREA_STYLE_COLOUR ( '', #689 ) ;
#874 = PLANE ( 'NONE',  #212 ) ;
#875 = FACE_OUTER_BOUND ( 'NONE', #713, .T. ) ;
#876 = CLOSED_SHELL ( 'NONE', ( #661, #440, #458, #207, #973, #176 ) ) ;
#877 = PRESENTATION_LAYER_ASSIGNMENT (  '', '', ( #323 ) ) ;
#878 =( NAMED_UNIT ( * ) SI_UNIT ( $, .STERADIAN. ) SOLID_ANGLE_UNIT ( ) );
#879 = FACE_OUTER_BOUND ( 'NONE', #758, .T. ) ;
#880 = AXIS2_PLACEMENT_3D ( 'NONE', #505, #813, #122 ) ;
#881 = CARTESIAN_POINT ( 'NONE',  ( 0.000000000000000000, 6.099999999999999645, 0.000000000000000000 ) ) ;
#882 = ORIENTED_EDGE ( 'NONE', *, *, #573, .T. ) ;
#883 = ADVANCED_FACE ( 'NONE', ( #879 ), #667, .F. ) ;
#884 = FILL_AREA_STYLE ('',( #346 ) ) ;
#885 = CARTESIAN_POINT ( 'NONE',  ( 2.644999999999999574, 0.1000000000000000056, 2.500000000000000444 ) ) ;
#886 = VERTEX_POINT ( 'NONE', #592 ) ;
#887 = CARTESIAN_POINT ( 'NONE',  ( -2.644999999999999574, 0.1000000000000000056, 2.500000000000000444 ) ) ;
#888 = DIRECTION ( 'NONE',  ( 0.000000000000000000, 1.000000000000000000, 0.000000000000000000 ) ) ;
#889 = DIRECTION ( 'NONE',  ( 0.000000000000000000, 0.000000000000000000, -1.000000000000000000 ) ) ;
#890 = CARTESIAN_POINT ( 'NONE',  ( -2.454999999999999183, 6.049999999999999822, -1.999999999999997113 ) ) ;
#891 = PRODUCT_DEFINITION ( 'UNKNOWN', '', #418, #337 ) ;
#892 = ORIENTED_EDGE ( 'NONE', *, *, #381, .T. ) ;
#893 = CARTESIAN_POINT ( 'NONE',  ( 3.030000000000000249, 21.33691413990522179, -3.130000000000000338 ) ) ;
#894 = VERTEX_POINT ( 'NONE', #172 ) ;
#895 = PLANE ( 'NONE',  #93 ) ;
#896 = CARTESIAN_POINT ( 'NONE',  ( -2.454999999999999183, 6.049999999999999822, 2.000000000000002665 ) ) ;
#897 = CARTESIAN_POINT ( 'NONE',  ( -1.395000000000000018, 0.000000000000000000, 2.500000000000000444 ) ) ;
#898 = CARTESIAN_POINT ( 'NONE',  ( -3.030000000000000249, 6.099999999999999645, 3.129999999999999449 ) ) ;
#899 = VECTOR ( 'NONE', #422, 1000.000000000000000 ) ;
#900 = VECTOR ( 'NONE', #70, 1000.000000000000000 ) ;
#901 = VERTEX_POINT ( 'NONE', #806 ) ;
#902 = EDGE_CURVE ( 'NONE', #901, #105, #116, .T. ) ;
#903 = PLANE ( 'NONE',  #972 ) ;
#904 = EDGE_LOOP ( 'NONE', ( #58, #372, #506, #99 ) ) ;
#905 = CARTESIAN_POINT ( 'NONE',  ( -2.454999999999999183, 6.049999999999999822, 2.000000000000002665 ) ) ;
#906 = CARTESIAN_POINT ( 'NONE',  ( -3.179999999999999716, 21.33691413990522179, 3.129999999999999449 ) ) ;
#907 = ORIENTED_EDGE ( 'NONE', *, *, #189, .T. ) ;
#908 = EDGE_CURVE ( 'NONE', #98, #105, #781, .T. ) ;
#909 = VERTEX_POINT ( 'NONE', #657 ) ;
#910 = DIRECTION ( 'NONE',  ( -0.000000000000000000, -0.000000000000000000, 1.000000000000000000 ) ) ;
#911 = ORIENTED_EDGE ( 'NONE', *, *, #60, .F. ) ;
#912 = DIRECTION ( 'NONE',  ( 0.000000000000000000, -1.000000000000000000, 0.000000000000000000 ) ) ;
#913 = LINE ( 'NONE', #457, #293 ) ;
#914 = VECTOR ( 'NONE', #452, 1000.000000000000000 ) ;
#915 = VECTOR ( 'NONE', #82, 1000.000000000000000 ) ;
#916 = FACE_OUTER_BOUND ( 'NONE', #646, .T. ) ;
#917 = ORIENTED_EDGE ( 'NONE', *, *, #415, .F. ) ;
#918 = PLANE ( 'NONE',  #125 ) ;
#919 = EDGE_CURVE ( 'NONE', #886, #924, #279, .T. ) ;
#920 = ORIENTED_EDGE ( 'NONE', *, *, #359, .T. ) ;
#921 = PRESENTATION_STYLE_ASSIGNMENT (( #250 ) ) ;
#922 = ORIENTED_EDGE ( 'NONE', *, *, #427, .F. ) ;
#923 = DIRECTION ( 'NONE',  ( -1.000000000000000000, 0.000000000000000000, 0.000000000000000000 ) ) ;
#924 = VERTEX_POINT ( 'NONE', #744 ) ;
#925 = CARTESIAN_POINT ( 'NONE',  ( 3.180000000000000160, 21.33691413990522179, 3.129999999999999449 ) ) ;
#926 = ORIENTED_EDGE ( 'NONE', *, *, #593, .F. ) ;
#927 = LINE ( 'NONE', #857, #274 ) ;
#928 = EDGE_CURVE ( 'NONE', #596, #979, #164, .T. ) ;
#929 = CARTESIAN_POINT ( 'NONE',  ( 2.644999999999999574, 0.1000000000000000056, -2.499999999999999556 ) ) ;
#930 = APPLICATION_CONTEXT ( 'automotive_design' ) ;
#931 = EDGE_LOOP ( 'NONE', ( #328, #152, #429, #911, #578, #136, #748, #686 ) ) ;
#932 = SURFACE_SIDE_STYLE ('',( #775 ) ) ;
#933 = DIRECTION ( 'NONE',  ( -0.000000000000000000, -1.000000000000000000, -0.000000000000000000 ) ) ;
#934 = PRODUCT_CONTEXT ( 'NONE', #930, 'mechanical' ) ;
#935 = CARTESIAN_POINT ( 'NONE',  ( -2.454999999999999183, 6.049999999999999822, 2.000000000000002665 ) ) ;
#936 = CARTESIAN_POINT ( 'NONE',  ( 1.395000000000000018, 0.1000000000000000056, 2.500000000000000444 ) ) ;
#937 = ADVANCED_FACE ( 'NONE', ( #214 ), #296, .T. ) ;
#938 = ORIENTED_EDGE ( 'NONE', *, *, #512, .F. ) ;
#939 =( NAMED_UNIT ( * ) PLANE_ANGLE_UNIT ( ) SI_UNIT ( $, .RADIAN. ) );
#940 = LINE ( 'NONE', #261, #275 ) ;
#941 = AXIS2_PLACEMENT_3D ( 'NONE', #925, #923, #241 ) ;
#942 = VECTOR ( 'NONE', #490, 1000.000000000000000 ) ;
#943 = EDGE_CURVE ( 'NONE', #331, #742, #84, .T. ) ;
#944 = CARTESIAN_POINT ( 'NONE',  ( 1.395000000000000018, 0.000000000000000000, -2.499999999999999556 ) ) ;
#945 = EDGE_CURVE ( 'NONE', #789, #181, #245, .T. ) ;
#946 = LINE ( 'NONE', #421, #229 ) ;
#947 = ORIENTED_EDGE ( 'NONE', *, *, #470, .F. ) ;
#948 = FACE_OUTER_BOUND ( 'NONE', #688, .T. ) ;
#949 = CARTESIAN_POINT ( 'NONE',  ( -2.704999999999999627, 6.099999999999999645, 2.000000000000002665 ) ) ;
#950 = ORIENTED_EDGE ( 'NONE', *, *, #32, .T. ) ;
#951 = EDGE_CURVE ( 'NONE', #281, #181, #24, .T. ) ;
#952 = VECTOR ( 'NONE', #430, 1000.000000000000000 ) ;
#953 = VECTOR ( 'NONE', #978, 1000.000000000000000 ) ;
#954 = LINE ( 'NONE', #489, #899 ) ;
#955 = DIRECTION ( 'NONE',  ( 1.000000000000000000, -0.000000000000000000, 0.000000000000000000 ) ) ;
#956 = PLANE ( 'NONE',  #393 ) ;
#957 = EDGE_LOOP ( 'NONE', ( #102, #182, #574, #233 ) ) ;
#958 = DIRECTION ( 'NONE',  ( 0.000000000000000000, 0.000000000000000000, -1.000000000000000000 ) ) ;
#959 = FACE_OUTER_BOUND ( 'NONE', #103, .T. ) ;
#960 = CARTESIAN_POINT ( 'NONE',  ( 1.395000000000000018, 0.000000000000000000, 2.500000000000000444 ) ) ;
#961 = ORIENTED_EDGE ( 'NONE', *, *, #338, .F. ) ;
#962 = PLANE ( 'NONE',  #4 ) ;
#963 = DIRECTION ( 'NONE',  ( 0.000000000000000000, 0.000000000000000000, -1.000000000000000000 ) ) ;
#964 = EDGE_CURVE ( 'NONE', #909, #237, #396, .T. ) ;
#965 = DIRECTION ( 'NONE',  ( 0.000000000000000000, 0.000000000000000000, -1.000000000000000000 ) ) ;
#966 = VERTEX_POINT ( 'NONE', #856 ) ;
#967 = UNCERTAINTY_MEASURE_WITH_UNIT (LENGTH_MEASURE( 1.000000000000000082E-05 ), #810, 'distance_accuracy_value', 'NONE');
#968 = DIRECTION ( 'NONE',  ( -0.000000000000000000, 0.000000000000000000, 1.000000000000000000 ) ) ;
#969 = CARTESIAN_POINT ( 'NONE',  ( -3.030000000000000249, 21.33691413990522179, -3.280000000000000249 ) ) ;
#970 = DIRECTION ( 'NONE',  ( 0.000000000000000000, 1.000000000000000000, 0.000000000000000000 ) ) ;
#971 = AXIS2_PLACEMENT_3D ( 'NONE', #829, #912, #683 ) ;
#972 = AXIS2_PLACEMENT_3D ( 'NONE', #443, #202, #151 ) ;
#973 = ADVANCED_FACE ( 'NONE', ( #696 ), #14, .F. ) ;
#974 = PRODUCT ( 'XAL6060-472MEB', 'XAL6060-472MEB', '', ( #934 ) ) ;
#975 = CARTESIAN_POINT ( 'NONE',  ( -2.644999999999999574, 0.1000000000000000056, -2.499999999999999556 ) ) ;
#976 = ORIENTED_EDGE ( 'NONE', *, *, #830, .F. ) ;
#977 = CARTESIAN_POINT ( 'NONE',  ( -2.704999999999999627, 6.049999999999999822, 2.000000000000002665 ) ) ;
#978 = DIRECTION ( 'NONE',  ( -1.000000000000000000, -0.000000000000000000, -0.000000000000000000 ) ) ;
#979 = VERTEX_POINT ( 'NONE', #320 ) ;
ENDSEC;
END-ISO-10303-21;
